<svg xmlns="http://www.w3.org/2000/svg" xmlns:xlink="http://www.w3.org/1999/xlink" viewBox="0 0 168.12 163.36"><defs><style>.cls-1{fill:#fff;}.cls-2{fill:url(#radial-gradient);}.cls-3{fill:#2b2523;}.cls-4{fill:url(#linear-gradient);}.cls-5{fill:url(#linear-gradient-2);}.cls-6{fill:url(#linear-gradient-3);}.cls-7{fill:url(#linear-gradient-4);}.cls-8{fill:url(#linear-gradient-5);}.cls-9{fill:url(#linear-gradient-6);}.cls-10{fill:url(#linear-gradient-7);}.cls-11{fill:url(#linear-gradient-8);}.cls-12{fill:url(#linear-gradient-9);}.cls-13{fill:url(#linear-gradient-10);}.cls-14{fill:url(#linear-gradient-11);}.cls-15{fill:url(#linear-gradient-12);}.cls-16{fill:url(#linear-gradient-13);}.cls-17{fill:url(#linear-gradient-14);}.cls-18{fill:url(#linear-gradient-15);}.cls-19{fill:url(#linear-gradient-16);}.cls-20{fill:url(#linear-gradient-17);}.cls-21{fill:url(#linear-gradient-18);}.cls-22{fill:url(#linear-gradient-19);}.cls-23{fill:url(#linear-gradient-20);}.cls-24{fill:url(#linear-gradient-21);}.cls-25{fill:url(#linear-gradient-22);}.cls-26{fill:url(#linear-gradient-23);}.cls-27{fill:url(#linear-gradient-24);}.cls-28{fill:url(#linear-gradient-25);}.cls-29{fill:url(#linear-gradient-26);}.cls-30{fill:url(#linear-gradient-27);}.cls-31{fill:url(#linear-gradient-28);}.cls-32{fill:url(#linear-gradient-29);}.cls-33{fill:url(#linear-gradient-30);}.cls-34{fill:url(#linear-gradient-31);}.cls-35{fill:url(#linear-gradient-32);}.cls-36{fill:url(#linear-gradient-33);}.cls-37{fill:url(#linear-gradient-34);}.cls-38{fill:url(#linear-gradient-35);}.cls-39{fill:url(#linear-gradient-36);}.cls-40{fill:url(#linear-gradient-37);}.cls-41{fill:url(#linear-gradient-38);}.cls-42{fill:url(#linear-gradient-39);}.cls-43{fill:url(#linear-gradient-40);}.cls-44{fill:url(#linear-gradient-41);}.cls-45{fill:url(#linear-gradient-42);}.cls-46{fill:url(#linear-gradient-43);}.cls-47{fill:url(#linear-gradient-44);}.cls-48{fill:url(#linear-gradient-45);}.cls-49{fill:url(#linear-gradient-46);}.cls-50{fill:url(#linear-gradient-47);}.cls-51{fill:url(#linear-gradient-48);}.cls-52{fill:url(#linear-gradient-49);}.cls-53{fill:url(#linear-gradient-50);}.cls-54{fill:url(#linear-gradient-51);}.cls-55{fill:url(#linear-gradient-52);}.cls-56{fill:url(#linear-gradient-53);}.cls-57{fill:url(#linear-gradient-54);}</style><radialGradient id="radial-gradient" cx="69.73" cy="100.08" r="53.74" gradientUnits="userSpaceOnUse"><stop offset="0.48" stop-color="#bda014"/><stop offset="1" stop-color="#ad7a19"/></radialGradient><linearGradient id="linear-gradient" x1="19.71" y1="100.08" x2="119.74" y2="100.08" gradientUnits="userSpaceOnUse"><stop offset="0" stop-color="#5f5c5d"/><stop offset="0.08" stop-color="#615e5f"/><stop offset="0.13" stop-color="#6a6768"/><stop offset="0.17" stop-color="#777576"/><stop offset="0.2" stop-color="#8b898a"/><stop offset="0.24" stop-color="#a5a3a4"/><stop offset="0.26" stop-color="#c4c2c4"/><stop offset="0.29" stop-color="#e8e7e9"/><stop offset="0.3" stop-color="#eeedef"/><stop offset="0.56" stop-color="#5f5c5d"/><stop offset="0.63" stop-color="#615e5f"/><stop offset="0.67" stop-color="#6a6768"/><stop offset="0.71" stop-color="#777576"/><stop offset="0.74" stop-color="#8b898a"/><stop offset="0.77" stop-color="#a5a3a4"/><stop offset="0.79" stop-color="#c4c2c4"/><stop offset="0.82" stop-color="#e8e7e9"/><stop offset="0.82" stop-color="#eeedef"/><stop offset="1" stop-color="#757273"/></linearGradient><linearGradient id="linear-gradient-2" x1="53.11" y1="26.1" x2="53.31" y2="26.1" gradientUnits="userSpaceOnUse"><stop offset="0" stop-color="#757273"/><stop offset="0.17" stop-color="#777475"/><stop offset="0.28" stop-color="#7f7d7e"/><stop offset="0.36" stop-color="#8d8b8c"/><stop offset="0.44" stop-color="#a09ea0"/><stop offset="0.5" stop-color="#b9b8ba"/><stop offset="0.53" stop-color="#c6c5c7"/><stop offset="1" stop-color="#757273"/></linearGradient><linearGradient id="linear-gradient-3" x1="51.31" y1="25.82" x2="51.58" y2="25.82" xlink:href="#linear-gradient-2"/><linearGradient id="linear-gradient-4" x1="45.94" y1="22.57" x2="46.18" y2="22.57" xlink:href="#linear-gradient-2"/><linearGradient id="linear-gradient-5" x1="86.14" y1="26.1" x2="86.34" y2="26.1" xlink:href="#linear-gradient-2"/><linearGradient id="linear-gradient-6" x1="87.87" y1="25.82" x2="88.14" y2="25.82" xlink:href="#linear-gradient-2"/><linearGradient id="linear-gradient-7" x1="93.27" y1="22.57" x2="93.51" y2="22.57" xlink:href="#linear-gradient-2"/><linearGradient id="linear-gradient-8" x1="108.88" y1="11.18" x2="138.79" y2="11.18" xlink:href="#linear-gradient-2"/><linearGradient id="linear-gradient-9" x1="107.8" y1="14.83" x2="137.07" y2="14.83" xlink:href="#linear-gradient-2"/><linearGradient id="linear-gradient-10" x1="109.38" y1="17.79" x2="133.28" y2="17.79" xlink:href="#linear-gradient-2"/><linearGradient id="linear-gradient-11" x1="106.64" y1="19.13" x2="128.63" y2="19.13" xlink:href="#linear-gradient-2"/><linearGradient id="linear-gradient-12" x1="104.85" y1="20.28" x2="122.62" y2="20.28" xlink:href="#linear-gradient-2"/><linearGradient id="linear-gradient-13" x1="101.25" y1="20.8" x2="113.67" y2="20.8" xlink:href="#linear-gradient-2"/><linearGradient id="linear-gradient-14" x1="99.26" y1="22.58" x2="111.63" y2="22.58" xlink:href="#linear-gradient-2"/><linearGradient id="linear-gradient-15" x1="99.31" y1="25.11" x2="107.7" y2="25.11" xlink:href="#linear-gradient-2"/><linearGradient id="linear-gradient-16" x1="97.1" y1="24.95" x2="102.28" y2="24.95" xlink:href="#linear-gradient-2"/><linearGradient id="linear-gradient-17" x1="95.33" y1="27.15" x2="103.97" y2="27.15" xlink:href="#linear-gradient-2"/><linearGradient id="linear-gradient-18" x1="94" y1="28.76" x2="101.99" y2="28.76" xlink:href="#linear-gradient-2"/><linearGradient id="linear-gradient-19" x1="92.09" y1="30.85" x2="100.05" y2="30.85" xlink:href="#linear-gradient-2"/><linearGradient id="linear-gradient-20" x1="89.74" y1="32.28" x2="98.1" y2="32.28" xlink:href="#linear-gradient-2"/><linearGradient id="linear-gradient-21" x1="118.75" y1="7.36" x2="138.79" y2="7.36" xlink:href="#linear-gradient-2"/><linearGradient id="linear-gradient-22" x1="112.15" y1="6.3" x2="132.47" y2="6.3" xlink:href="#linear-gradient-2"/><linearGradient id="linear-gradient-23" x1="100.17" y1="14.62" x2="108.59" y2="14.62" xlink:href="#linear-gradient-2"/><linearGradient id="linear-gradient-24" x1="87.87" y1="25.79" x2="88.13" y2="25.79" xlink:href="#linear-gradient-2"/><linearGradient id="linear-gradient-25" x1="86.14" y1="26.12" x2="86.29" y2="26.12" xlink:href="#linear-gradient-2"/><linearGradient id="linear-gradient-26" x1="0.66" y1="11.18" x2="30.57" y2="11.18" xlink:href="#linear-gradient-2"/><linearGradient id="linear-gradient-27" x1="2.38" y1="14.83" x2="31.65" y2="14.83" xlink:href="#linear-gradient-2"/><linearGradient id="linear-gradient-28" x1="6.17" y1="17.79" x2="30.08" y2="17.79" xlink:href="#linear-gradient-2"/><linearGradient id="linear-gradient-29" x1="10.83" y1="19.13" x2="32.81" y2="19.13" xlink:href="#linear-gradient-2"/><linearGradient id="linear-gradient-30" x1="16.84" y1="20.28" x2="34.6" y2="20.28" xlink:href="#linear-gradient-2"/><linearGradient id="linear-gradient-31" x1="25.78" y1="20.8" x2="38.2" y2="20.8" xlink:href="#linear-gradient-2"/><linearGradient id="linear-gradient-32" x1="27.82" y1="22.58" x2="40.19" y2="22.58" xlink:href="#linear-gradient-2"/><linearGradient id="linear-gradient-33" x1="31.75" y1="25.11" x2="40.14" y2="25.11" xlink:href="#linear-gradient-2"/><linearGradient id="linear-gradient-34" x1="37.17" y1="24.95" x2="42.35" y2="24.95" xlink:href="#linear-gradient-2"/><linearGradient id="linear-gradient-35" x1="35.48" y1="27.15" x2="44.13" y2="27.15" xlink:href="#linear-gradient-2"/><linearGradient id="linear-gradient-36" x1="37.46" y1="28.76" x2="45.45" y2="28.76" xlink:href="#linear-gradient-2"/><linearGradient id="linear-gradient-37" x1="39.41" y1="30.85" x2="47.37" y2="30.85" xlink:href="#linear-gradient-2"/><linearGradient id="linear-gradient-38" x1="41.35" y1="32.28" x2="49.71" y2="32.28" xlink:href="#linear-gradient-2"/><linearGradient id="linear-gradient-39" x1="0.66" y1="7.36" x2="20.7" y2="7.36" xlink:href="#linear-gradient-2"/><linearGradient id="linear-gradient-40" x1="6.98" y1="6.3" x2="27.3" y2="6.3" xlink:href="#linear-gradient-2"/><linearGradient id="linear-gradient-41" x1="30.87" y1="14.62" x2="39.28" y2="14.62" xlink:href="#linear-gradient-2"/><linearGradient id="linear-gradient-42" x1="51.32" y1="25.79" x2="51.58" y2="25.79" xlink:href="#linear-gradient-2"/><linearGradient id="linear-gradient-43" x1="53.16" y1="26.12" x2="53.31" y2="26.12" xlink:href="#linear-gradient-2"/><linearGradient id="linear-gradient-44" x1="24.14" y1="19.96" x2="115.31" y2="19.96" xlink:href="#linear-gradient-2"/><linearGradient id="linear-gradient-45" x1="71.9" y1="35.9" x2="78.44" y2="35.9" xlink:href="#linear-gradient-2"/><linearGradient id="linear-gradient-46" x1="76.8" y1="39.43" x2="78.54" y2="39.43" xlink:href="#linear-gradient-2"/><linearGradient id="linear-gradient-47" x1="74.64" y1="38.98" x2="76.92" y2="38.98" xlink:href="#linear-gradient-2"/><linearGradient id="linear-gradient-48" x1="73.44" y1="38.22" x2="74.28" y2="38.22" xlink:href="#linear-gradient-2"/><linearGradient id="linear-gradient-49" x1="61.12" y1="35.9" x2="67.66" y2="35.9" xlink:href="#linear-gradient-2"/><linearGradient id="linear-gradient-50" x1="61.02" y1="39.43" x2="62.76" y2="39.43" xlink:href="#linear-gradient-2"/><linearGradient id="linear-gradient-51" x1="62.64" y1="38.98" x2="64.92" y2="38.98" xlink:href="#linear-gradient-2"/><linearGradient id="linear-gradient-52" x1="65.28" y1="38.22" x2="66.12" y2="38.22" xlink:href="#linear-gradient-2"/><linearGradient id="linear-gradient-53" x1="60.8" y1="32.57" x2="78.75" y2="32.57" xlink:href="#linear-gradient-2"/><linearGradient id="linear-gradient-54" x1="57.89" y1="10.82" x2="75.72" y2="10.82" xlink:href="#linear-gradient-2"/></defs><title>Recurso 1</title><g id="Capa_2" data-name="Capa 2"><g id="Layer_1" data-name="Layer 1"><path class="cls-1" d="M128.66,154.86h.22a2,2,0,0,0,0,.27c0,.11.08.17.17.17l.2-.06.36-.14L130,155l.24-.09v-.58a.25.25,0,0,0-.13-.25,1,1,0,0,0-.24-.07v-.22h3.56V154a1.19,1.19,0,0,0-.34.07.24.24,0,0,0-.14.25v8.47c0,.14,0,.22.14.25a1.06,1.06,0,0,0,.3.07v.22h-3.62v-.22a1.12,1.12,0,0,0,.32-.07c.09,0,.14-.12.14-.25V157l-.74.18a1.68,1.68,0,0,0-.42.16.41.41,0,0,0-.18.19.75.75,0,0,0,0,.29h-.22Z"/><path class="cls-1" d="M138.91,160.56v.16a.52.52,0,0,0,.2.41,1.52,1.52,0,0,0,.53.28,3.85,3.85,0,0,0,.75.16,6.77,6.77,0,0,0,.86.05,4,4,0,0,0,1.12-.15,3,3,0,0,0,1-.47,2.68,2.68,0,0,0,.71-.79,2.62,2.62,0,0,0,.34-1.13,11,11,0,0,1-1.73.71A5.78,5.78,0,0,1,141,160a4.13,4.13,0,0,1-1.35-.22,3.47,3.47,0,0,1-1.13-.64,3.13,3.13,0,0,1-.78-1,3,3,0,0,1-.29-1.34,2.58,2.58,0,0,1,.41-1.48,3.3,3.3,0,0,1,1-1,4.62,4.62,0,0,1,1.4-.55,7.11,7.11,0,0,1,3.57.12,4.26,4.26,0,0,1,1.59.88,4,4,0,0,1,1,1.47,5.46,5.46,0,0,1,.36,2.08,4.88,4.88,0,0,1-.46,2.15,4.63,4.63,0,0,1-1.22,1.58,5.17,5.17,0,0,1-1.77,1,7,7,0,0,1-2.12.32,10.63,10.63,0,0,1-1.3-.07,7.37,7.37,0,0,1-1-.19l-.69-.21a1.45,1.45,0,0,0-.31-.09.59.59,0,0,0-.42.2l-.22-.09,1.44-2.44Zm2.87-5.07a3.3,3.3,0,0,0-.6.06,2.65,2.65,0,0,0-.65.21,1.51,1.51,0,0,0-.53.41,1.13,1.13,0,0,0,0,1.33,1.51,1.51,0,0,0,.53.41,2.55,2.55,0,0,0,.65.21,2.83,2.83,0,0,0,1.2,0,2.54,2.54,0,0,0,.65-.21,1.52,1.52,0,0,0,.53-.41,1.13,1.13,0,0,0,0-1.33,1.52,1.52,0,0,0-.53-.41,2.64,2.64,0,0,0-.65-.21A3.3,3.3,0,0,0,141.79,155.48Z"/><path class="cls-1" d="M149.57,160.56v.16a.53.53,0,0,0,.2.41,1.55,1.55,0,0,0,.53.28,3.93,3.93,0,0,0,.75.16,6.77,6.77,0,0,0,.86.05,4,4,0,0,0,1.12-.15,3,3,0,0,0,1-.47,2.69,2.69,0,0,0,.71-.79,2.6,2.6,0,0,0,.34-1.13,11,11,0,0,1-1.73.71,5.78,5.78,0,0,1-1.69.24,4.1,4.1,0,0,1-1.34-.22,3.46,3.46,0,0,1-1.13-.64,3.11,3.11,0,0,1-.78-1,3,3,0,0,1-.29-1.34,2.6,2.6,0,0,1,.41-1.48,3.3,3.3,0,0,1,1-1,4.59,4.59,0,0,1,1.4-.55,7,7,0,0,1,1.5-.17,6.89,6.89,0,0,1,2.07.29,4.27,4.27,0,0,1,1.59.88,4,4,0,0,1,1,1.47,5.42,5.42,0,0,1,.37,2.08,4.92,4.92,0,0,1-.46,2.15,4.65,4.65,0,0,1-1.22,1.58,5.16,5.16,0,0,1-1.77,1,7,7,0,0,1-2.12.32,10.55,10.55,0,0,1-1.3-.07,7.37,7.37,0,0,1-1-.19l-.69-.21a1.44,1.44,0,0,0-.31-.09.59.59,0,0,0-.42.2l-.22-.09,1.44-2.44Zm2.87-5.07a3.26,3.26,0,0,0-.6.06,2.62,2.62,0,0,0-.65.21,1.51,1.51,0,0,0-.53.41,1.11,1.11,0,0,0,0,1.33,1.51,1.51,0,0,0,.53.41,2.53,2.53,0,0,0,.65.21,3.32,3.32,0,0,0,.6.06,3.36,3.36,0,0,0,.6-.06,2.59,2.59,0,0,0,.66-.21,1.51,1.51,0,0,0,.53-.41,1.13,1.13,0,0,0,0-1.33,1.51,1.51,0,0,0-.53-.41,2.69,2.69,0,0,0-.66-.21A3.3,3.3,0,0,0,152.44,155.48Z"/><path class="cls-1" d="M166.48,156.41a.19.19,0,0,0,0-.09v-.09q0-.26-.58-.54a4.16,4.16,0,0,0-1.75-.28,4.32,4.32,0,0,0-1.16.16,2.77,2.77,0,0,0-.94.46,2.2,2.2,0,0,0-.64.8,2.63,2.63,0,0,0-.24,1.15,4.34,4.34,0,0,1,1.41-.84,5.07,5.07,0,0,1,1.63-.24,4.9,4.9,0,0,1,1.41.21,4.06,4.06,0,0,1,1.25.62,3.14,3.14,0,0,1,.89,1,2.91,2.91,0,0,1,.33,1.43,2.69,2.69,0,0,1-.4,1.49,3.19,3.19,0,0,1-1,1,4.26,4.26,0,0,1-1.39.54,7.49,7.49,0,0,1-1.49.16,8.3,8.3,0,0,1-2.11-.25,4.12,4.12,0,0,1-1.65-.84,3.94,3.94,0,0,1-1.07-1.48,5.51,5.51,0,0,1-.38-2.15,4.8,4.8,0,0,1,1.58-3.64,5.16,5.16,0,0,1,1.69-1,6,6,0,0,1,2.06-.35,11.06,11.06,0,0,1,1.46.08,8.34,8.34,0,0,1,1,.19l.65.19a1.21,1.21,0,0,0,.36.08.2.2,0,0,0,.17-.08.94.94,0,0,1,.16-.15l.2.07-1.31,2.51Zm-.8,3.69a1.11,1.11,0,0,0-.58-1,3,3,0,0,0-2.84,0,1.11,1.11,0,0,0-.58,1,1.06,1.06,0,0,0,.58,1,3.15,3.15,0,0,0,2.84,0A1.06,1.06,0,0,0,165.68,160.1Z"/><path class="cls-1" d="M137.26,147a.58.58,0,0,0-.15-.3.54.54,0,0,0-.39-.12h-3.38v1.69h5.84a.25.25,0,0,0,.22-.1,1,1,0,0,0,.11-.44h.22v3.11h-.22a.46.46,0,0,0-.11-.29.35.35,0,0,0-.22-.06H130.1v-.22a.82.82,0,0,0,.43-.12.28.28,0,0,0,.08-.21v-8.47a.28.28,0,0,0-.08-.21.82.82,0,0,0-.43-.12v-.22h9.07a.25.25,0,0,0,.22-.1.94.94,0,0,0,.11-.41h.22v3.16h-.22a.93.93,0,0,0-.11-.41.25.25,0,0,0-.22-.1h-5.84v1.51h3.38a.53.53,0,0,0,.39-.12.57.57,0,0,0,.15-.3h.22V147Z"/><path class="cls-1" d="M142.57,146.77a1.38,1.38,0,0,0,0,.38c0,.12.11.26.34.41a4.23,4.23,0,0,0,.87.43,8.07,8.07,0,0,0,1.23.34,7.27,7.27,0,0,0,1.4.14,4.71,4.71,0,0,0,2-.32,1,1,0,0,0,.64-.92c0-.22-.18-.37-.55-.46a9.76,9.76,0,0,0-1.39-.22l-1.8-.18a9.05,9.05,0,0,1-1.8-.36,3.68,3.68,0,0,1-1.39-.76,1.76,1.76,0,0,1-.55-1.37,2.52,2.52,0,0,1,.32-1.25,2.94,2.94,0,0,1,.89-1,4.59,4.59,0,0,1,1.39-.63,6.82,6.82,0,0,1,1.82-.23,11.6,11.6,0,0,1,1.73.12q.8.12,1.42.26l1,.27a2.57,2.57,0,0,0,.6.12.48.48,0,0,0,.29-.08,1.21,1.21,0,0,0,.2-.19l.2.07-1.25,2.53-.22-.11v-.2c0-.11-.12-.22-.35-.34a4.61,4.61,0,0,0-.9-.31,11.47,11.47,0,0,0-1.22-.23,9.67,9.67,0,0,0-1.31-.09,3.56,3.56,0,0,0-1.66.27c-.32.18-.47.38-.47.58a.5.5,0,0,0,.33.46,3,3,0,0,0,.85.23c.35,0,.75.09,1.2.12s.91.08,1.38.14a13,13,0,0,1,1.38.25,4.32,4.32,0,0,1,1.2.48,2.55,2.55,0,0,1,.85.84,2.4,2.4,0,0,1,.33,1.3,3,3,0,0,1-.25,1.18,2.65,2.65,0,0,1-.84,1,4.47,4.47,0,0,1-1.58.73,9.4,9.4,0,0,1-2.46.27,15.54,15.54,0,0,1-2-.11,11.21,11.21,0,0,1-1.41-.27c-.39-.1-.69-.2-.92-.28a1.57,1.57,0,0,0-.5-.13.27.27,0,0,0-.19.07l-.17.16-.22-.05,1.34-3.24Z"/><path class="cls-1" d="M155.64,150.25a.81.81,0,0,0,.43-.12.28.28,0,0,0,.08-.21v-6.8H153a.25.25,0,0,0-.22.1,1,1,0,0,0-.11.41h-.22v-3.24h.22a1,1,0,0,0,.11.41.25.25,0,0,0,.22.1h9a.26.26,0,0,0,.22-.1,1,1,0,0,0,.11-.41h.22v3.24h-.22a1,1,0,0,0-.11-.41.26.26,0,0,0-.22-.1h-3.13v6.8a.28.28,0,0,0,.08.21.81.81,0,0,0,.43.12v.22h-3.75Z"/><path class="cls-1" d="M165.41,147.7a1.46,1.46,0,0,1,1.44,1.44,1.29,1.29,0,0,1-.43,1,1.47,1.47,0,0,1-2,0,1.28,1.28,0,0,1-.43-1,1.46,1.46,0,0,1,1.44-1.44Z"/><path class="cls-2" d="M108.1,82.36c-6.84-15.62,6.23-26.6,6.23-26.6L103.27,42.67c-15.54,9.4-33.54-2.2-33.54-2.2s-18,11.59-33.54,2.2L25.12,55.76s13.08,11,6.23,26.6S10,126.88,45.8,146.37l23.93,13.3,23.93-13.3C129.48,126.88,114.94,98,108.1,82.36Z"/><path class="cls-3" d="M52.09,87.35V66.56H49.42v3s-5.76-12.65-8,2.81-2.67,39.9,0,46.09c0,0,3.94,11.38,7.73,3.51s3-18.41,3-18.41l-3-4.92s-1.54,24.17-3.93,7.17,1.26-38.36,3.51-18.68Z"/><path class="cls-3" d="M79.07,85.53c-.14-20.66-5.21-19-5.21-19H64.74V80h1v30.77h-1v13.07h7.44V110.11H70.54v-8.43S79.21,106.18,79.07,85.53ZM70.54,89.6V79.21s3.32-2,3.46,5.19S70.54,89.6,70.54,89.6Z"/><rect class="cls-3" x="56.02" y="108.9" width="4.63" height="14.99"/><rect class="cls-3" x="79.07" y="108.9" width="4.63" height="14.99"/><rect class="cls-3" x="99.37" y="108.9" width="4.63" height="14.99"/><rect class="cls-3" x="87.78" y="110.12" width="7.19" height="13.77"/><rect class="cls-3" x="87.78" y="66.26" width="7.19" height="13.76"/><rect class="cls-3" x="89.08" y="80.02" width="4.98" height="30.1"/><path class="cls-4" d="M69.73,163.05,44.4,149C7.65,129,20.85,99.14,28,83.11l.81-1.83c6.06-13.82-5.46-23.71-5.58-23.8l-2-1.65L35.42,39l1.86,1.13a23.49,23.49,0,0,0,12.34,3.33c10.06,0,18.64-5.45,18.72-5.5l1.38-.89,1.38.89c.08.05,8.71,5.5,18.72,5.5a23.49,23.49,0,0,0,12.34-3.33L104,39l14.2,16.79-2,1.65c-.47.4-11.6,10.07-5.58,23.8l.81,1.83C118.6,99.14,131.81,129,95,149ZM28.29,55.36a30.11,30.11,0,0,1,4.52,6.48,24.29,24.29,0,0,1,.62,21.48l-.82,1.85c-3.44,7.78-8.16,18.44-7.79,29.13.43,12.49,7.64,22.37,22,30.2l22.87,12.71,22.85-12.7c14.41-7.84,21.62-17.72,22-30.21.37-10.69-4.34-21.35-7.79-29.13L106,83.33a24.28,24.28,0,0,1,.62-21.48,30.15,30.15,0,0,1,4.52-6.48l-8.26-9.77a28.77,28.77,0,0,1-13.06,3c-9.14,0-17-3.79-20.11-5.5-3.09,1.71-11,5.5-20.11,5.5a28.79,28.79,0,0,1-13.07-3Z"/><path class="cls-3" d="M53.16,26.32l.15-.14C53.07,26.09,53.08,26.28,53.16,26.32Z"/><path class="cls-3" d="M53.26,26.9l-.3-.13a.59.59,0,0,1-.34-.66.62.62,0,0,1,.86-.41l.8.29Zm0-.8.06.07-.17.47a.42.42,0,0,0,.46-.33.41.41,0,0,0-.25-.46Z"/><path class="cls-3" d="M51.58,25.73l-.26.39C51.29,26.22,51.34,26.19,51.58,25.73Z"/><path class="cls-3" d="M51.32,26.67h-.25l-.3-.4.14-.43.25-.38L52,26C51.8,26.4,51.66,26.67,51.32,26.67Z"/><path class="cls-3" d="M45.94,22.92a2.36,2.36,0,0,0,.25-.45A4.14,4.14,0,0,1,45.94,22.92Z"/><path class="cls-3" d="M46.33,23.24l-.82-.58a3.94,3.94,0,0,0,.2-.36l.44.21-.42-.24h0l0,0,.91.42h0l-.46-.16.44.21A2.53,2.53,0,0,1,46.33,23.24Z"/><path class="cls-3" d="M86.14,26.17l.15.14C86.37,26.28,86.38,26.09,86.14,26.17Z"/><path class="cls-3" d="M86.2,26.9l-.34-.31L85.3,26l.76-.37.19,0a.59.59,0,0,1,.58.46.6.6,0,0,1-.34.67Zm-.11-1a.41.41,0,0,0-.24.46.42.42,0,0,0,.4.34l-.11-.48.06-.07Z"/><path class="cls-3" d="M88.13,26.12l-.26-.39C88.11,26.19,88.16,26.22,88.13,26.12Z"/><path class="cls-3" d="M88.13,26.67c-.34,0-.47-.25-.71-.71l.86-.51.33.53.07.24-.3.45Z"/><path class="cls-3" d="M93.51,22.92a4.1,4.1,0,0,1-.24-.45A2.28,2.28,0,0,0,93.51,22.92Z"/><path class="cls-3" d="M93.12,23.24a2.66,2.66,0,0,1-.31-.55h0l.91-.42h0a3.39,3.39,0,0,0,.21.39Z"/><path class="cls-3" d="M129.9,9a2.91,2.91,0,0,0-2.49,1.7c-.71,1.66-2.65,1.33-3,1.33l-14.18-.29-1.32,1.82,18.53.62s.34-3.61,8.5-4.35a11.06,11.06,0,0,1,2.69-1.33c1.08-.25-2.9.5-2.9.5Z"/><path class="cls-3" d="M127.87,14.69,107.92,14l2-2.8,14.45.3h.19l.43,0a1.85,1.85,0,0,0,1.93-1,3.39,3.39,0,0,1,2.94-2h5.82c2.87-.55,3-.55,3.08-.55h.45l.06.45c.05.45-.38.55-.57.6a10.28,10.28,0,0,0-2.53,1.25l-.11.07H136c-7.54.69-8,3.87-8,3.9Zm-18-1.61,17.18.58c.36-1,1.79-3.35,7.45-4.18H129.9a2.39,2.39,0,0,0-2,1.39A2.8,2.8,0,0,1,125,12.54l-.5,0h-.14l-13.93-.29Z"/><path class="cls-3" d="M130.31,14.17s-2.28-.21-3.07.49l-18.61-.49h-.16s-1.16.24-.42.62l20.48,2.15s1-1.82,6.1-1.91c0,0,2.15-.54,2.44-2.07C137.07,13,133.3,14.79,130.31,14.17Z"/><path class="cls-3" d="M128.8,17.46l-.32,0-20.65-2.2c-.51-.26-.54-.6-.52-.78.06-.48.61-.69,1.06-.78h.27l18.45.49a4.55,4.55,0,0,1,2.48-.52c.46,0,.8,0,.8,0a6.45,6.45,0,0,0,1.29.13,14.06,14.06,0,0,0,5.2-1.28l.9-.43-.19,1c-.35,1.83-2.72,2.44-2.82,2.46h-.11c-4.65.08-5.66,1.64-5.67,1.66Zm-16-2.68,15.53,1.63a6,6,0,0,1,3.5-1.62,7.32,7.32,0,0,1-1.58-.14s-.28,0-.66,0a3.48,3.48,0,0,0-2,.4l-.15.13Zm22.82-.69a15.8,15.8,0,0,1-1.77.48l.74,0A4.57,4.57,0,0,0,135.59,14.09Z"/><path class="cls-3" d="M133,17.9c-1.38-1-3.49-.91-4-.41a3.21,3.21,0,0,1-2.94.12s-16.62-2.12-16.62-1.78c0,0,1.95,1.43,9.08,2.86s9.7,1.29,9.7,1.29a1.94,1.94,0,0,1,1.66,0C130.77,20.39,134.34,18.94,133,17.9Z"/><path class="cls-3" d="M130.26,20.55h0a1.62,1.62,0,0,1-.64-.11,2,2,0,0,0-1.22,0l-.22.06H128a54,54,0,0,1-9.62-1.3c-7.16-1.43-9.19-2.88-9.28-2.94l-.2-.15v-.25c0-.25.13-.54.75-.54,2.1,0,15.85,1.75,16.43,1.82l.15,0,.11.1a1.8,1.8,0,0,0,1,.18,2.39,2.39,0,0,0,1.32-.29,3,3,0,0,1,1.82-.51,4.81,4.81,0,0,1,2.85.89,1.09,1.09,0,0,1,.45,1.25C133.38,19.77,131.38,20.55,130.26,20.55ZM129,19.29a2.65,2.65,0,0,1,1.05.22.66.66,0,0,0,.24,0c1,0,2.51-.8,2.52-1.13h0a.37.37,0,0,0-.11-.11,3.79,3.79,0,0,0-2.24-.69,2,2,0,0,0-1.14.24,3.22,3.22,0,0,1-2,.56,3,3,0,0,1-1.47-.32c-1.12-.14-9.44-1.19-13.79-1.62a46.79,46.79,0,0,0,6.54,1.72A53.1,53.1,0,0,0,128,19.48H128A2.35,2.35,0,0,1,129,19.29Z"/><path class="cls-3" d="M126.46,20.35S111,18.32,108.34,16a5.15,5.15,0,0,1-1.7.41s14.13,7.26,20.06,5.85C126.71,22.29,131.19,21.13,126.46,20.35Z"/><path class="cls-3" d="M125,23h0c-6.61,0-18.06-5.83-18.54-6.08l-2.16-1.11,2.43.16h0a4.84,4.84,0,0,0,1.47-.37l.29-.12.24.2c2.08,1.79,13.59,3.63,17.85,4.19,1.83.3,2.58.69,2.6,1.35s-1.23,1.3-2.3,1.58A8.12,8.12,0,0,1,125,23Zm-15.64-5.8C113.09,18.91,120.37,22,125,22h0a7.16,7.16,0,0,0,1.63-.17,5.86,5.86,0,0,0,1.41-.55,6.47,6.47,0,0,0-1.62-.41C125.82,20.77,113.86,19.18,109.32,17.17Zm-1.14-.54L109,17a5.66,5.66,0,0,1-.73-.42Z"/><path class="cls-3" d="M121.89,22.91c-.91-.33-13.93-4.18-15.46-6l-1.57.62s6.76,4.64,8.38,5.1c0,0,2.49.24,3,.87a14.21,14.21,0,0,1,4.89.16C123.15,24.28,122.81,23.24,121.89,22.91Z"/><path class="cls-3" d="M122.1,24.38h0a4.29,4.29,0,0,1-1.13-.19,9.4,9.4,0,0,0-2.52-.29,16.91,16.91,0,0,0-2.16.14l-.29,0-.18-.23a6.23,6.23,0,0,0-2.64-.68c-1.74-.48-7.92-4.71-8.62-5.19l-.78-.53,2.79-1.1.23.27c.8.93,5.51,2.75,14,5.43l1.25.4c.59.21,1.14.72,1,1.28C123.08,23.88,122.93,24.38,122.1,24.38Zm-3.65-1.48a10.91,10.91,0,0,1,2.57.27l-.5-.16c-5.74-1.8-12.42-4-14.2-5.47l-.4.16c2.23,1.51,6.34,4.19,7.45,4.5a7.46,7.46,0,0,1,3,.83A18.36,18.36,0,0,1,118.45,22.89Z"/><path class="cls-3" d="M110.29,22a36.24,36.24,0,0,0-9-4.73,2.9,2.9,0,0,1,0,2.32l6.55,4.52a8.87,8.87,0,0,0,3.19.46,12.17,12.17,0,0,1,2.45-.41C114.72,23.58,110.29,22,110.29,22Z"/><path class="cls-3" d="M110.87,25.08a8,8,0,0,1-3.32-.53l-6.92-4.77.16-.38a2.41,2.41,0,0,0,0-1.87l-.64-1.1,1.22.37a36.38,36.38,0,0,1,9.12,4.76c3.61,1.29,3.65,2.06,3.66,2.31a.77.77,0,0,1-.52.75l-.16,0a16,16,0,0,0-2.18.32l-.09.09Zm-9-5.67,6.24,4.3a7.63,7.63,0,0,0,2.78.37h0a8.23,8.23,0,0,1,2-.36,15.63,15.63,0,0,0-2.73-1.24l-.12-.06a39.76,39.76,0,0,0-8-4.34A3.84,3.84,0,0,1,101.85,19.4Z"/><path class="cls-3" d="M110.41,25.11c-3.24.16-10.53-5.86-10.53-5.86v-.19c.09,0-.62.66-.62.66l1.16.69c1.5,1.18-1.16,1.51-1.16,1.51l7.62,3.94a6.19,6.19,0,0,0,3.94.33C112.86,25.73,110.41,25.11,110.41,25.11Z"/><path class="cls-3" d="M109.32,26.86h0a6.18,6.18,0,0,1-2.65-.55L99,22.37l-1.43-.74,1.6-.2a2.67,2.67,0,0,0,1.17-.38s-.09-.1-.26-.24l-.48-.29-.25.43v-.58l-.95-.56.49-.46.46-.45v-.35h.23l.79-1.36v1.72l.08.14h0c2.14,1.73,7.37,5.54,9.82,5.54h.18l.07,0c1.61.41,1.6,1,1.6,1.15,0,.64-.84.83-1.2.91A7.46,7.46,0,0,1,109.32,26.86Zm-8.69-4.8,6.49,3.35a5.2,5.2,0,0,0,2.2.45h0a6.37,6.37,0,0,0,1.35-.15l-.31-.1h-.07c-2.4,0-6.52-2.79-8.9-4.56a.89.89,0,0,1,0,.26A1.28,1.28,0,0,1,100.62,22.06Z"/><path class="cls-3" d="M107.28,27c-.59-.27-7.67-4.25-7.67-4.25s-.58-.11-.15.61,5.37,4.27,6.93,4.43S107.86,27.22,107.28,27Z"/><path class="cls-3" d="M106.88,28.28h0l-.53,0c-1.71-.18-6.77-3.8-7.31-4.67a1,1,0,0,1-.15-1,.72.72,0,0,1,.65-.35l.32.07c2,1.1,7.17,4,7.63,4.23a1,1,0,0,1,.69,1.08C108.12,27.9,107.83,28.28,106.88,28.28Zm-5.72-4.12c1.63,1.23,4.33,3,5.29,3.1l.34,0C105.87,26.78,103.06,25.21,101.17,24.15Z"/><path class="cls-3" d="M97.29,23.88s2.8,2.72,3.69,3,.46-.12.89,0,.65-.37,0-.68S96,21.71,97.29,23.88Z"/><path class="cls-3" d="M101.44,27.42a2.43,2.43,0,0,1-.59-.1c-1-.25-3.43-2.61-3.91-3.08l-.08-.11a1.09,1.09,0,0,1-.17-1.07c.38-.65,1.27-.28,4.3,1.88.46.33,1,.7,1.11.76a1,1,0,0,1,.67,1.08.79.79,0,0,1-1,.56A.77.77,0,0,1,101.44,27.42ZM99,24.76a9.63,9.63,0,0,0,2.13,1.59l.21,0-.91-.64C100.05,25.51,99.51,25.12,99,24.76Z"/><path class="cls-3" d="M102.28,27.25c-1.19,1.43-4.92-2.45-4.92-2.45-.23.48-2,.28-2,.28s2.42,3.08,4.37,4,3.65,1,4.19-.52S102.28,27.25,102.28,27.25Z"/><path class="cls-3" d="M102.11,30.27h0a6.21,6.21,0,0,1-2.63-.73c-2-1-4.44-4-4.54-4.15l-.74-.94,1.19.13s.35,0,.73,0a1.84,1.84,0,0,0,.84-.11l.31-.65.44.59c1,1,2.88,2.61,3.85,2.61a.38.38,0,0,0,.33-.14l.13-.16.21,0h.3a2.08,2.08,0,0,1,1.73.67,1.4,1.4,0,0,1,.1,1.34A2.22,2.22,0,0,1,102.11,30.27Zm-5.67-4.65a13.61,13.61,0,0,0,3.48,3,5.34,5.34,0,0,0,2.2.63,1.22,1.22,0,0,0,1.3-.86c0-.11.1-.32,0-.42a1.23,1.23,0,0,0-.91-.24h0a1.4,1.4,0,0,1-.93.33c-1.43,0-3.47-1.84-4.26-2.61A2.75,2.75,0,0,1,96.43,25.62Z"/><path class="cls-3" d="M98,28.78c-.68-1-3.53-2.88-3.83-2.32a3,3,0,0,0,0,1.72c0,.08,3.88,4.19,7.31,3,0,0,.87-.21.39-.64S98.66,29.82,98,28.78Z"/><path class="cls-3" d="M100.19,31.93h0c-3.25,0-6.37-3.28-6.49-3.51l0-.11a3.28,3.28,0,0,1,0-2.1.73.73,0,0,1,.67-.36c1,0,3.37,1.67,4,2.65a5.22,5.22,0,0,0,2.35,1.11,4,4,0,0,1,1.44.6.77.77,0,0,1,.28.79c-.13.49-.72.66-.9.7A4.38,4.38,0,0,1,100.19,31.93ZM94.6,28c.26.25,2.92,3,5.59,3h0a3.57,3.57,0,0,0,1-.13l-.69-.22c-1.06-.32-2.37-.72-2.9-1.52a8,8,0,0,0-3-2.17A3.14,3.14,0,0,0,94.6,28Z"/><path class="cls-3" d="M93.87,28.56l0,0A2.7,2.7,0,0,1,92.11,28c-.13-.15.09,4.12,5,5.92a1.57,1.57,0,0,1,1.58,0s1.2.25,1.37-.47A10.65,10.65,0,0,1,93.87,28.56Z"/><path class="cls-3" d="M97.14,34.47l-.22-.08c-4.87-1.79-5.42-5.93-5.33-6.46l.07-.41.66,0,.16.18A2.11,2.11,0,0,0,93.8,28h.28l.19.24A10.25,10.25,0,0,0,100.17,33l.48.12-.11.48c-.06.27-.33.9-1.41.9h0a2.88,2.88,0,0,1-.55-.05l-.12,0-.09-.07c-.32-.25-1,0-1,0Zm-4.4-5.58a6.79,6.79,0,0,0,4.34,4.49,2.32,2.32,0,0,1,1-.19A10.79,10.79,0,0,1,93.55,29,4.23,4.23,0,0,1,92.74,28.89Z"/><path class="cls-3" d="M97.1,34.53c-2.89-.85-6.82-5.63-6.82-5.63-.72-.29-.52.51-.52.51.08,1.07,3.5,4.23,4.24,5.24s3.2,1.66,3.91,1.16S97.1,34.53,97.1,34.53Z"/><path class="cls-3" d="M97.16,36.48h0a5,5,0,0,1-3.57-1.54c-.22-.31-.76-.88-1.34-1.5-1.71-1.82-2.92-3.17-3-4a1,1,0,0,1,.15-.83.85.85,0,0,1,1.05-.18l.12,0,.08.1s3.86,4.67,6.57,5.47c.45.23,1.31.74,1.36,1.4a.85.85,0,0,1-.39.77A1.8,1.8,0,0,1,97.16,36.48ZM90.7,30.14A31.11,31.11,0,0,0,93,32.76a21.28,21.28,0,0,1,1.42,1.6,4.1,4.1,0,0,0,2.75,1.13h0a1.38,1.38,0,0,0,.37,0,2.82,2.82,0,0,0-.66-.47C94.71,34.34,92,31.6,90.7,30.14Z"/><path class="cls-3" d="M121.61,10.64a22.92,22.92,0,0,0-2.86.83l6.46.29c1.62-2.8,7-4.42,7-4.42,5.81-.4,6.61-4.13,6.61-4.13C123.55,7,121.61,10.64,121.61,10.64Z"/><path class="cls-3" d="M125.5,12.28l-9.78-.44,2.89-.85.63-.21a17.85,17.85,0,0,1,2.08-.6c.69-.88,4-4.15,17.35-7.45l.78-.19-.17.79c0,.17-.95,4.08-7,4.52-.54.17-5.2,1.71-6.62,4.17Zm-3.61-1.17,3.06.14c1.85-2.78,6.87-4.32,7.09-4.38l.11,0C135.79,6.6,137.32,5,137.93,4c-13.76,3.54-15.86,6.9-15.88,6.94Z"/><path class="cls-3" d="M112.15,11.3c2.65.41,8.71-.91,9.17-1.37s4.18-3.68,7.44-4.65a5.05,5.05,0,0,0,3.7-3.81c-2.16,2.24-16.62,5.84-16.62,5.84C115.14,10,112.15,11.3,112.15,11.3Z"/><path class="cls-3" d="M113.35,11.88h0a8.54,8.54,0,0,1-1.27-.08l-1.72-.26,1.6-.69s2.77-1.23,3.4-3.65l.08-.29.29-.07c4-1,14.7-4,16.38-5.7L133.2,0,133,1.56a5.52,5.52,0,0,1-4.05,4.22c-3.06.9-6.69,4-7.23,4.52S116.18,11.88,113.35,11.88Zm2.9-4.14a6.52,6.52,0,0,1-2.39,3.13A26.64,26.64,0,0,0,121,9.56c.58-.57,4.33-3.77,7.62-4.75a4.73,4.73,0,0,0,2.78-2C127.52,4.83,118.31,7.22,116.24,7.74Z"/><path class="cls-3" d="M102,13.76c-3.61.91-.75,3.19-.75,3.19,3.53,1.41,7.26-4,7.26-4C109.16,11.5,105.61,12.84,102,13.76Z"/><path class="cls-3" d="M102.48,17.68h0a3.79,3.79,0,0,1-1.41-.27l-.13-.07c-.15-.12-1.5-1.23-1.23-2.44.16-.76.89-1.31,2.17-1.63.76-.19,1.51-.4,2.23-.6a18.69,18.69,0,0,1,3.87-.85,1.14,1.14,0,0,1,1,.41,1,1,0,0,1,0,.94C108.79,13.43,105.82,17.68,102.48,17.68Zm-1-1.18a2.78,2.78,0,0,0,1,.17h0c2.51,0,5-3.16,5.52-3.86h0a19.18,19.18,0,0,0-3.6.82c-.72.2-1.48.42-2.25.61s-1.36.52-1.43.86S101.16,16.21,101.51,16.5Z"/><path class="cls-3" d="M87.87,25.73l.26.39C88.1,26,88,25.71,87.87,25.73Z"/><path class="cls-3" d="M89.57,29.14,87.05,25.4l.83-.18c.48,0,.7.62.73.75Z"/><path class="cls-3" d="M86.29,26.32l-.15-.14C86.19,26.31,86.25,26.33,86.29,26.32Z"/><path class="cls-3" d="M86.27,26.82a.63.63,0,0,1-.59-.48L85,24.51l2.14,1.89-.76.42Z"/><path class="cls-3" d="M12,14.17l18.52-.62-1.32-1.82L15.07,12c-.37,0-2.32.33-3-1.33A2.91,2.91,0,0,0,9.55,9H3.75s-4-.75-2.9-.5A11.1,11.1,0,0,1,3.54,9.82C11.7,10.56,12,14.17,12,14.17Z"/><path class="cls-3" d="M11.59,14.69l0-.46c0-.09-.56-3.22-8-3.91H3.37l-.11-.07A10.63,10.63,0,0,0,.73,9c-.19,0-.62-.14-.57-.6l.05-.44H.67c.05,0,.21,0,3.17.56H9.55a3.4,3.4,0,0,1,3,2,1.85,1.85,0,0,0,1.93,1l.43,0h.2l14.44-.3,2,2.8ZM5,9.49c5.63.83,7.05,3.16,7.41,4.17l17.19-.58L29,12.23l-14.07.29-.5,0a2.8,2.8,0,0,1-2.85-1.66,2.39,2.39,0,0,0-2-1.39Z"/><path class="cls-3" d="M10.92,16.94,31.4,14.79c.75-.38-.42-.62-.42-.62h-.16l-18.61.49c-.79-.7-3.07-.49-3.07-.49-3,.62-6.76-1.2-6.76-1.2C2.67,14.5,4.83,15,4.83,15,9.92,15.12,10.92,16.94,10.92,16.94Z"/><path class="cls-3" d="M10.64,17.48l-.16-.29c0-.07-1.1-1.58-5.67-1.65H4.71c-.1,0-2.47-.63-2.82-2.46l-.19-1,.9.43A14.06,14.06,0,0,0,7.8,13.8,6.11,6.11,0,0,0,9,13.68a7.89,7.89,0,0,1,.86,0,4.56,4.56,0,0,1,2.48.52L31,13.67h0c.45.09,1,.31,1.06.78,0,.22,0,.53-.52.78l-.17.05Zm-3-2.68a6,6,0,0,1,3.5,1.62l15.53-1.63L12,15.17,11.87,15a3.48,3.48,0,0,0-2-.4c-.41,0-.7,0-.71,0A6.92,6.92,0,0,1,7.66,14.8ZM4.9,14.54l.73,0a15.51,15.51,0,0,1-1.77-.48A4.54,4.54,0,0,0,4.9,14.54Z"/><path class="cls-3" d="M21,18.68c7.13-1.42,9.08-2.86,9.08-2.86,0-.33-16.62,1.78-16.62,1.78a3.21,3.21,0,0,1-2.94-.12c-.54-.5-2.65-.62-4,.41S8.68,20.39,9.64,20a1.94,1.94,0,0,1,1.66,0S13.87,20.1,21,18.68Z"/><path class="cls-3" d="M9.2,20.55c-1.12,0-3.12-.77-3.47-1.8a1.09,1.09,0,0,1,.45-1.25A4.81,4.81,0,0,1,9,16.61a3,3,0,0,1,1.82.51,2.38,2.38,0,0,0,1.33.29,1.8,1.8,0,0,0,1-.18l.11-.1.15,0C14,17,27.72,15.29,29.82,15.29c.62,0,.76.29.76.54v.25l-.21.15c-.08.06-2.12,1.52-9.28,2.94a54,54,0,0,1-9.62,1.3h-.33L11,20.41h0a2,2,0,0,0-1.21,0A1.62,1.62,0,0,1,9.2,20.55ZM9,17.61a3.79,3.79,0,0,0-2.24.69.32.32,0,0,0-.11.11c0,.33,1.51,1.13,2.52,1.13a.65.65,0,0,0,.24,0,2.87,2.87,0,0,1,2,0h.06a53.05,53.05,0,0,0,9.42-1.28,46.87,46.87,0,0,0,6.54-1.72c-4.35.43-12.67,1.48-13.79,1.62a3,3,0,0,1-1.46.32,3.23,3.23,0,0,1-2-.56A2,2,0,0,0,9,17.61Z"/><path class="cls-3" d="M31.11,16C28.46,18.32,13,20.35,13,20.35c-4.73.79-.25,1.95-.25,1.95,5.93,1.41,20.06-5.85,20.06-5.85A5.15,5.15,0,0,1,31.11,16Z"/><path class="cls-3" d="M14.5,23a8.12,8.12,0,0,1-1.87-.2c-1.08-.28-2.34-.78-2.31-1.58s.78-1,2.59-1.35c4.28-.56,15.79-2.4,17.87-4.19l.24-.2.29.12a4.91,4.91,0,0,0,1.42.37H34.8L33,16.89C32.56,17.14,21.11,23,14.5,23Zm-3-1.72a5.89,5.89,0,0,0,1.42.55A7.18,7.18,0,0,0,14.5,22c4.58,0,11.87-3.06,15.64-4.8-4.54,2-16.52,3.6-17.08,3.67A6.4,6.4,0,0,0,11.46,21.26Zm19.73-4.65a5.6,5.6,0,0,1-.74.42l.82-.39Z"/><path class="cls-3" d="M34.6,17.57,33,16.94c-1.54,1.79-14.56,5.64-15.46,6s-1.25,1.37.79.79a14.21,14.21,0,0,1,4.89-.16c.49-.63,3-.87,3-.87C27.83,22.21,34.6,17.57,34.6,17.57Z"/><path class="cls-3" d="M17.35,24.38c-.83,0-1-.5-1-.65-.1-.56.45-1.07,1-1.28l1.25-.4c8.5-2.67,13.21-4.5,14-5.43l.23-.27,2.79,1.1-.78.53c-.7.48-6.88,4.71-8.53,5.17a6.49,6.49,0,0,0-2.73.7l-.18.23-.29,0A16.94,16.94,0,0,0,21,23.9a9.41,9.41,0,0,0-2.52.29A4.29,4.29,0,0,1,17.35,24.38Zm15.78-6.85C31.35,19,24.67,21.19,18.93,23l-.51.16A10.92,10.92,0,0,1,21,22.89a18.35,18.35,0,0,1,2.07.12,7.8,7.8,0,0,1,3.1-.84c1-.3,5.13-3,7.36-4.48Z"/><path class="cls-3" d="M31.65,24.11,38.2,19.6a2.91,2.91,0,0,1,0-2.32,36.19,36.19,0,0,0-9,4.73S24.73,23.58,26,24.16a12.17,12.17,0,0,1,2.45.41A8.87,8.87,0,0,0,31.65,24.11Z"/><path class="cls-3" d="M28.59,25.08h-.34L28.15,25A16,16,0,0,0,26,24.66l-.16,0a.78.78,0,0,1-.53-.75c0-.25,0-1,3.66-2.31a36.36,36.36,0,0,1,9.12-4.76l1.22-.37-.64,1.1a2.44,2.44,0,0,0,0,1.87l.17.38-6.89,4.75A7.89,7.89,0,0,1,28.59,25.08Zm0-1h0a7.47,7.47,0,0,0,2.81-.39L37.6,19.4a3.84,3.84,0,0,1-.15-1.32,39.75,39.75,0,0,0-8,4.34l-.12.06a15.55,15.55,0,0,0-2.73,1.24A8.22,8.22,0,0,1,28.58,24.07Z"/><path class="cls-3" d="M40.19,21.92s-2.65-.33-1.16-1.51l1.16-.69s-.71-.66-.62-.66v.19s-7.3,6-10.53,5.86c0,0-2.45.62-.42,1.08a6.19,6.19,0,0,0,3.94-.33Z"/><path class="cls-3" d="M30.14,26.86h0a7.45,7.45,0,0,1-1.62-.18c-.36-.08-1.19-.27-1.2-.91,0-.18,0-.74,1.6-1.15l.07,0h.18c2.45,0,7.69-3.82,9.83-5.54l.07-.14V17.21l.78,1.35h.23v.35l.46.45.49.46-.95.56v.56l-.24-.41-.54.32a.64.64,0,0,0-.21.25,3.86,3.86,0,0,0,1.18.33l1.61.2-1.44.75-7.63,3.94A6.2,6.2,0,0,1,30.14,26.86Zm-1.35-1.15a6.37,6.37,0,0,0,1.35.15,5.22,5.22,0,0,0,2.21-.45l6.48-3.35a1.27,1.27,0,0,1-.72-.75.93.93,0,0,1,0-.26c-2.37,1.77-6.5,4.56-8.9,4.56H29.1Z"/><path class="cls-3" d="M40,23.31c.44-.71-.15-.61-.15-.61s-7.08,4-7.67,4.25-.78,1,.88.79S39.55,24,40,23.31Z"/><path class="cls-3" d="M32.57,28.28c-.95,0-1.23-.38-1.3-.69A1,1,0,0,1,32,26.5c.47-.22,5.67-3.13,7.63-4.23l.2-.06h.12a.72.72,0,0,1,.65.35,1,1,0,0,1-.15,1c-.54.87-5.6,4.49-7.31,4.67Zm5.71-4.12c-1.89,1.06-4.7,2.62-5.63,3.12l.34,0C33.95,27.15,36.65,25.39,38.28,24.15Z"/><path class="cls-3" d="M37.58,26.83c.43-.12,0,.23.89,0s3.69-3,3.69-3c1.25-2.17-3.94,2-4.58,2.27S37.15,27,37.58,26.83Z"/><path class="cls-3" d="M38,27.42a.77.77,0,0,1-.37-.08l-.19,0h0a.76.76,0,0,1-.77-.58,1,1,0,0,1,.68-1.08c.12-.06.65-.43,1.11-.76,3-2.16,3.91-2.53,4.29-1.88a1.09,1.09,0,0,1-.17,1.07l-.08.11c-.48.47-2.94,2.83-3.91,3.08A2.46,2.46,0,0,1,38,27.42Zm2.46-2.65c-.54.36-1.07.74-1.41,1l-.91.64.2,0A9.72,9.72,0,0,0,40.47,24.76Z"/><path class="cls-3" d="M44.13,25.08s-1.8.19-2-.28c0,0-3.74,3.88-4.93,2.45,0,0-2.15-.21-1.61,1.32s2.25,1.46,4.19.52S44.13,25.08,44.13,25.08Z"/><path class="cls-3" d="M37.34,30.27h0a2.22,2.22,0,0,1-2.25-1.53,1.4,1.4,0,0,1,.1-1.34,2.08,2.08,0,0,1,1.73-.67h.3l.2,0,.13.16a.38.38,0,0,0,.33.14c1,0,2.87-1.6,3.85-2.61l.5-.52.31.63s.21.06.8.06c.39,0,.73,0,.73,0l1.19-.13-.74.94c-.1.13-2.52,3.18-4.54,4.15A6.23,6.23,0,0,1,37.34,30.27Zm-.42-2.52A1.23,1.23,0,0,0,36,28c-.07.1,0,.31,0,.42a1.22,1.22,0,0,0,1.3.86h0a5.35,5.35,0,0,0,2.2-.63,13.63,13.63,0,0,0,3.48-3,2.75,2.75,0,0,1-.87-.16c-.79.77-2.83,2.61-4.26,2.61a1.4,1.4,0,0,1-.93-.33Z"/><path class="cls-3" d="M45.31,28.18a3,3,0,0,0,0-1.72c-.31-.56-3.15,1.29-3.83,2.32s-3.4,1.37-3.87,1.81.39.64.39.64C41.43,32.37,45.27,28.26,45.31,28.18Z"/><path class="cls-3" d="M39.26,31.93h0a4.51,4.51,0,0,1-1.43-.23c-.14,0-.73-.21-.85-.69a.78.78,0,0,1,.28-.79,4,4,0,0,1,1.44-.6,5.22,5.22,0,0,0,2.35-1.11c.65-1,3-2.65,4-2.65a.73.73,0,0,1,.67.37,3.27,3.27,0,0,1,0,2.1l0,.11C45.63,28.65,42.52,31.93,39.26,31.93Zm-1-1.13c2.9.8,6.07-2.36,6.55-2.86a3.16,3.16,0,0,0,.08-1.06,8,8,0,0,0-3,2.17c-.53.8-1.84,1.2-2.9,1.52Z"/><path class="cls-3" d="M42.35,33.92c4.9-1.8,5.12-6.07,5-5.92a2.71,2.71,0,0,1-1.74.52l0,0a10.65,10.65,0,0,1-6.17,4.89c.16.72,1.37.47,1.37.47A1.57,1.57,0,0,1,42.35,33.92Z"/><path class="cls-3" d="M42.31,34.47l-.2-.11s-.7-.29-1,0l-.09.07-.11,0a2.92,2.92,0,0,1-.55.05c-1.08,0-1.35-.63-1.41-.91l-.11-.48.48-.12a10.23,10.23,0,0,0,5.85-4.64l.23-.31h.25A2.13,2.13,0,0,0,47,27.66l.15-.17h.65l.09.44c.09.53-.46,4.67-5.33,6.46Zm-.83-1.28a2.43,2.43,0,0,1,.9.19,6.79,6.79,0,0,0,4.34-4.49,4.07,4.07,0,0,1-.82.12,10.72,10.72,0,0,1-4.49,4.18Z"/><path class="cls-3" d="M45.45,34.65c.73-1,4.15-4.17,4.23-5.24,0,0,.2-.8-.52-.51,0,0-3.93,4.78-6.82,5.63,0,0-1.51.78-.82,1.28S44.72,35.67,45.45,34.65Z"/><path class="cls-3" d="M42.29,36.48h0a1.81,1.81,0,0,1-1-.26.85.85,0,0,1-.4-.78c0-.66.9-1.18,1.27-1.37,2.8-.84,6.62-5.46,6.66-5.51l.08-.1.12,0a.85.85,0,0,1,1.05.18,1.12,1.12,0,0,1,.14.92c-.05.75-1.27,2.1-3,3.92-.58.61-1.12,1.19-1.34,1.5A5,5,0,0,1,42.29,36.48Zm-.37-1a1.33,1.33,0,0,0,.37,0A4.1,4.1,0,0,0,45,34.36a21,21,0,0,1,1.42-1.6A31.73,31.73,0,0,0,48.83,30c-1.29,1.44-4.07,4.29-6.34,5A2.84,2.84,0,0,0,41.93,35.44Z"/><path class="cls-3" d="M7.27,7.35s5.34,1.61,7,4.42l6.46-.29a23,23,0,0,0-2.86-.83S15.9,7,.66,3.22C.66,3.22,1.47,6.95,7.27,7.35Z"/><path class="cls-3" d="M14,12.28,13.8,12C12.38,9.56,7.72,8,7.18,7.84c-6.06-.44-7-4.35-7-4.52L0,2.54l.78.19C14.11,6,17.44,9.3,18.13,10.18a17.82,17.82,0,0,1,2.07.6l.63.21,2.89.85ZM1.51,4c.6,1,2.12,2.64,5.79,2.89l.11,0c.22.07,5.24,1.6,7.09,4.38l3-.14-.12-.23S15.29,7.49,1.51,4Z"/><path class="cls-3" d="M10.68,5.29c3.26,1,7,4.19,7.44,4.65s6.52,1.77,9.17,1.37c0,0-3-1.28-3.69-4,0,0-14.47-3.6-16.63-5.84A5.05,5.05,0,0,0,10.68,5.29Z"/><path class="cls-3" d="M26.1,11.88h0c-2.84,0-7.75-1-8.33-1.59S13.6,6.68,10.54,5.77A5.51,5.51,0,0,1,6.49,1.56L6.25,0,7.34,1.13C9,2.88,19.75,5.84,23.73,6.84l.29.07.08.29c.63,2.42,3.37,3.63,3.4,3.65l1.6.69-1.72.26A8.55,8.55,0,0,1,26.1,11.88ZM8,2.79a4.72,4.72,0,0,0,2.78,2c3.3,1,7.05,4.18,7.66,4.77a27.31,27.31,0,0,0,7.12,1.29,6.51,6.51,0,0,1-2.39-3.13C21.14,7.22,11.93,4.83,8,2.79Z"/><path class="cls-3" d="M38.2,16.94s2.87-2.28-.75-3.19S30.29,11.5,30.94,13C30.94,13,34.68,18.35,38.2,16.94Z"/><path class="cls-3" d="M37,17.68c-3.34,0-6.32-4.25-6.45-4.43a1,1,0,0,1,0-1,1.14,1.14,0,0,1,1-.41,18.69,18.69,0,0,1,3.87.85c.71.2,1.47.41,2.23.6,1.27.32,2,.87,2.17,1.63.26,1.21-1.08,2.32-1.23,2.44l-.13.07A3.78,3.78,0,0,1,37,17.68Zm-5.53-4.86c.36.47,2.93,3.86,5.53,3.86a2.78,2.78,0,0,0,1-.17c.34-.29.92-.95.82-1.4s-.58-.65-1.43-.86-1.53-.41-2.25-.61a19.18,19.18,0,0,0-3.6-.82Z"/><path class="cls-3" d="M51.32,26.12l.26-.39C51.5,25.71,51.36,26,51.32,26.12Z"/><path class="cls-3" d="M49.94,29l.9-3.07c.05-.18.26-.75.73-.75h.12l.69.16-.6.92Z"/><path class="cls-3" d="M53.31,26.17l-.15.14S53.26,26.31,53.31,26.17Z"/><path class="cls-3" d="M53.19,26.82h0l-.23,0-.7-.32,2.18-2-.66,1.84A.64.64,0,0,1,53.19,26.82Zm0-1a.4.4,0,0,0-.35.19l.34.12,0-.31Z"/><path class="cls-3" d="M103.49,9.48A36.57,36.57,0,0,0,88.65,17.7h0l-.61.48h0a9.42,9.42,0,0,0-2.37,1,12,12,0,0,1-10.45-.69h-.09l-.6,1-.56-1-.56,1-.56-1-.56,1-.56-1-.56,1h0l-.56-1-.56,1-.29-.5-.27-.46-.56,1-.56-1-.56,1v0l-.56-1-.56,1-.56-1-.56,1-.56-1-.56,1-.51-.87a12.09,12.09,0,0,1-10.15.54,9.47,9.47,0,0,0-2.37-1h0l-.61-.48h0A36.53,36.53,0,0,0,36,9.48c-10.4-.25-11.78-3.79-11.81-3.15-.33,5.14,11.52,6.39,14,7.17s1.45,2.7.91,4.27.54.62.54.62c1.86-2.32,1.2.17,1.2.17l1.43-.07c-.16.2-.3.43-.14.52a5.43,5.43,0,0,0-2.44,1.91.88.88,0,0,1,.5.25c1.24-.25,2-1,3.24-1.24.24,0,.24,0,.24.25-.74.75-2,1.24-2.73,2v.5c1.74,1,3-1.49,4.73-1.74a5.82,5.82,0,0,1-1.74,1.74c-.25.25-.49.75-.74,1,0,.25,0,1,.49.75A6.73,6.73,0,0,0,46,22.76c-.09.15-.09.26,0,.16a4.14,4.14,0,0,0,.25-.45,2.36,2.36,0,0,1-.25.45,6.77,6.77,0,0,0-1.27,2.38c-.21,1.62,2.21-1,2.51-.61.14.19-.78,1.52-.86,1.81-.29,1.25.45,1.18,1.21.42.39-.39,1.31-2.08,1.83-1.78a8.16,8.16,0,0,0-.82,2.57,1.57,1.57,0,0,1,0,.41c1-.25,1.49-1.49,2-2.24.25-.5.75-.25,1-.17-.24.47-.29.49-.26.39-.71,1.06-1.45,2.19-1,3.51,1.25-.5,1.75-1.75,2.24-2.73l.6-.58c-.08,0-.09-.23.15-.14-.14.4-2.26,5.12-1.37,5.18.43,0,1.25-1.84,1.43-2.13s1.38-2.84,1.88-2.55a30.4,30.4,0,0,0-1.33,4c-.06.25-.51,1.61-.14,1.8.77.39,3.33-4.78,3.6-5.27l.07,0a20.32,20.32,0,0,0-1.12,3.25c-.1.4-.69,2.22-.29,2.59s1-1,1.2-1.25,1.26-2.84,1.62-2.61-.3,1.9-.37,2.17c-.12.45-1,2.95,0,2.47.7-.35,1.28-1.75,1.65-2.39.59-1,1.14-2.05,1.68-3.09l.85-1.44h.19l.84.05-.38,1.06L64.45,28l-.21,1.11,1.09-.29,0,1.12,1-.47.17,1.11.93-.63L67.77,31l.82-.78.52,1,.63-.84v0l0,0,.68.9.52-1,.81.78.35-1.07.93.63.16-1.11,1,.46,0-1.12,1.09.29L75.13,28l1.12.11L75.86,27l.84-.05h.07l.85,1.43c.54,1,1.09,2.08,1.68,3.09.37.64.95,2,1.65,2.39,1,.48.13-2,0-2.47-.07-.26-.66-2-.37-2.17s1.5,2.41,1.61,2.61.81,1.61,1.2,1.25-.19-2.2-.29-2.59A20.33,20.33,0,0,0,82,27.25l.07,0c.27.49,2.83,5.66,3.6,5.27.36-.19-.08-1.56-.14-1.8a30.27,30.27,0,0,0-1.33-4c.51-.29,1.64,2.12,1.88,2.55s1,2.15,1.43,2.13c.89-.06-1.22-4.78-1.37-5.18.24-.09.23.11.15.14l.6.58c.49,1,1,2.24,2.24,2.73.44-1.33-.29-2.46-1-3.51,0,.1,0,.08-.26-.39.26-.07.77-.33,1,.17.5.75,1,2,2,2.24a1.52,1.52,0,0,1,0-.41,8.12,8.12,0,0,0-.82-2.57c.52-.31,1.45,1.39,1.83,1.78.76.76,1.5.83,1.21-.42-.07-.29-1-1.62-.86-1.81.3-.41,2.72,2.22,2.51.61a6.76,6.76,0,0,0-1.27-2.38,2.28,2.28,0,0,1-.24-.45,4.1,4.1,0,0,0,.24.45c.08.1.08,0,0-.16a6.77,6.77,0,0,0,2.35,1.65c.49.25.49-.5.49-.75-.25-.25-.49-.75-.74-1a5.89,5.89,0,0,1-1.74-1.74c1.74.25,3,2.73,4.73,1.74v-.5c-.75-.74-2-1.24-2.73-2,0-.25,0-.25.24-.25,1.25.25,2,1,3.24,1.24a.89.89,0,0,1,.5-.25A5.42,5.42,0,0,0,97.39,19c.16-.09,0-.32-.14-.52l1.42.07s-.66-2.49,1.2-.17c0,0,1.08,1,.54-.62s-1.53-3.48.92-4.27,14.31-2,14-7.17C115.26,5.69,113.89,9.23,103.49,9.48Z"/><path class="cls-3" d="M81.17,34.44a1,1,0,0,1-.44-.11,4.81,4.81,0,0,1-1.6-2.11c-.09-.18-.18-.35-.26-.48-.52-.89-1.05-1.88-1.69-3.11l-.53-.89.33.93-1.25-.12L76,29.76l-1.21-.33,0,1.25-1.15-.52-.18,1.24-1-.7L72,31.9,71.12,31l-.58,1.11-.29-.38v1.68l-.68-2-.54.71L68.45,31l-.91.87-.39-1.19-1,.7-.19-1.24-1.14.52,0-1.25-1.22.33.23-1.24-1.25.12L63,27.47h-.06l-.69,1.17c-.44.84-1,2-1.68,3.09-.08.13-.17.3-.26.49a4.83,4.83,0,0,1-1.59,2.1.76.76,0,0,1-1-.17c-.32-.43-.19-1.22.18-2.5l-.07.15-.14.29,0,.09c-.49.92-.9,1.48-1.44,1.48a.72.72,0,0,1-.49-.2c-.37-.35-.36-1-.15-2C54.74,32.71,54.27,33,53.87,33h-.12l-.2-.07c-.63-.33-.42-1.29-.15-2.24l0-.13c.06-.26.14-.53.21-.8h0c-.72,1.42-1.13,2.06-1.69,2.06a.71.71,0,0,1-.59-.33c-.19-.31-.22-.83.17-2.08a3.26,3.26,0,0,1-1,.65l-.49.2-.17-.5a3.1,3.1,0,0,1,0-1.85,2.29,2.29,0,0,1-1.11.69l-.62.16v-.64a1.27,1.27,0,0,0,0-.32V27.7a4.05,4.05,0,0,1,.11-.73,3.29,3.29,0,0,1-.26.32,2,2,0,0,1-1.29.7.8.8,0,0,1-.64-.3,1.48,1.48,0,0,1-.13-1.29,2.75,2.75,0,0,1,.28-.59c-.8.54-1.41.69-1.76.3a1.09,1.09,0,0,1-.18-.86,2.86,2.86,0,0,1,.17-.64l-.52.27a.89.89,0,0,1-.4.1c-.37,0-.82-.23-.82-1.3v-.21l.15-.15A1.86,1.86,0,0,0,43,23a2.33,2.33,0,0,1-2.35.08L40.36,23V22l.15-.15a4.43,4.43,0,0,1,.37-.33,4.66,4.66,0,0,1-.66.18l-.26.05-.19-.19a.52.52,0,0,0-.17-.11h-1l.58-.79a5.81,5.81,0,0,1,1.67-1.57l-.76,0,.17-.66,0-.15c-.1.11-.22.25-.36.42a1.52,1.52,0,0,1-.92.48.64.64,0,0,1-.53-.27c-.19-.27-.18-.65,0-1.3l.17-.48a3.45,3.45,0,0,0,.35-2.37A1.75,1.75,0,0,0,38,14c-.43-.14-1.24-.31-2.18-.5-4.35-.9-12.44-2.57-12.13-7.18l0-.47.51-.08a.89.89,0,0,1,.58.3C26.94,7.87,30.71,8.85,36,9h.11a36.64,36.64,0,0,1,15,8.3h0l.53.42a8.79,8.79,0,0,1,2,.85l.32.16a11.73,11.73,0,0,0,9.68-.53l.43-.24.32.55.56-1,.56,1,.56-1,.56,1,.56-1,.57,1,.57-1,.56,1,.56-1,.56,1,.56-1,.56,1,.56-1,.56,1,.56-1,.56,1,.55-1,.56,1,.35-.6.6.15a11.54,11.54,0,0,0,10,.65l.26-.14a8.76,8.76,0,0,1,2-.85l.59-.47a36.7,36.7,0,0,1,15-8.26h.11c5.27-.12,9-1.11,11.2-2.92a.89.89,0,0,1,.58-.3h.47l.07.55c.3,4.61-7.79,6.28-12.13,7.18-.94.19-1.75.36-2.18.5a1.75,1.75,0,0,0-1.12.78,3.45,3.45,0,0,0,.35,2.37l.17.48c.22.66.24,1,0,1.31a.64.64,0,0,1-.53.27,1.47,1.47,0,0,1-.86-.42c-.17-.21-.31-.36-.42-.48l0,.15.17.66-.76,0a5.8,5.8,0,0,1,1.66,1.58l.56.79h-1a.7.7,0,0,0-.16.11l-.19.18-.26,0a4.81,4.81,0,0,1-.66-.18,4.49,4.49,0,0,1,.37.33l.15.15v1l-.25.14A2.33,2.33,0,0,1,96.48,23a2,2,0,0,0,.21.27l.15.15v.21a2.71,2.71,0,0,1-.05.59A.79.79,0,0,1,96,25a.9.9,0,0,1-.4-.1l-.52-.27a2.74,2.74,0,0,1,.17.65,1.08,1.08,0,0,1-.18.85c-.35.4-1,.25-1.76-.29a2.59,2.59,0,0,1,.28.58,1.48,1.48,0,0,1-.13,1.3.8.8,0,0,1-.64.3,2,2,0,0,1-1.29-.69A3.33,3.33,0,0,1,91.3,27a4.12,4.12,0,0,1,.11.73v.12a1.17,1.17,0,0,0,0,.32v.64l-.62-.16a2.28,2.28,0,0,1-1.11-.69,3.1,3.1,0,0,1,0,1.85l-.17.5L89,30.1a3.27,3.27,0,0,1-1-.66c.38,1.25.36,1.77.17,2.08a.7.7,0,0,1-.55.33h0c-.6,0-1-.64-1.73-2.06h0c.08.27.15.54.21.8l0,.14c.26.95.47,1.9-.15,2.23l-.11.06-.21,0c-.4,0-.87-.32-1.68-1.54.22,1,.23,1.63-.14,2a.72.72,0,0,1-.5.2c-.6,0-1-.73-1.44-1.47l-.05-.1-.13-.27-.08-.17c.36,1.25.5,2.07.18,2.5A.7.7,0,0,1,81.17,34.44ZM58.81,28.72H59l.18.1c.48.31.36,1-.12,2.55l-.12.41a11.4,11.4,0,0,0-.34,1.41,7.9,7.9,0,0,0,.87-1.43c.11-.2.2-.39.29-.53.63-1.09,1.23-2.21,1.67-3.07l1-1.73,2,.13-.34.94,1-.1-.18,1,1-.26,0,1,.9-.41.15,1,.82-.56.31.95.72-.68.46.88.73-1,.27.71.2.27.46-.88.72.68.31-.94.82.55.14-1,.91.41,0-1,1,.26-.18-1,1,.1-.34-.94L77,26.44l.23.26.84,1.43c.64,1.24,1.17,2.22,1.68,3.09.09.15.18.33.28.53a7.92,7.92,0,0,0,.87,1.43,11.18,11.18,0,0,0-.34-1.4l-.12-.4c-.47-1.51-.6-2.24-.11-2.56l.12-.08h.2c.46,0,.83.37,1.9,2.67l.1.22.06.11c.13.24.24.43.32.56a12.38,12.38,0,0,0-.33-1.43l-.06-.22a20,20,0,0,0-1.09-3.18l-.21-.5,1-.34.16.38.19.37a27.48,27.48,0,0,0,2.56,4.31c0-.17-.09-.39-.17-.68l0-.17a29.63,29.63,0,0,0-1.31-4l-.16-.4.49-.28.23,0c.58,0,1.08.62,2.08,2.55l.15.28.19.36L87,30a32.47,32.47,0,0,0-1.2-3.24l-.11-.27-.33-.31.19-.08-.08-.21L86,25.7a.62.62,0,0,1,.86.41v0l.41.4.09.13.15.3a5.11,5.11,0,0,0,1.27,1.87,4.26,4.26,0,0,0-.93-2.27,1.86,1.86,0,0,1-.41-.61l-.29-.55.25-.07-.63-2.19,1.33,2a1.07,1.07,0,0,1,1.25.53c.08.11.19.3.31.5a6.62,6.62,0,0,0,.68,1,10.08,10.08,0,0,0-.59-1.6l-.27-.64.38-.22a.77.77,0,0,1,.39-.11c.58,0,1.07.61,1.68,1.47a5.07,5.07,0,0,0,.37.49,2,2,0,0,0,.42.33,2,2,0,0,0,0-.29c0-.06-.18-.34-.3-.54-.49-.84-.75-1.3-.48-1.68a.61.61,0,0,1,.51-.26c.33,0,.67.22,1.24.62.17.12.43.3.64.42a4.62,4.62,0,0,0-.76-1.4c-.14-.2-.28-.4-.4-.61a2.45,2.45,0,0,1-.27-.49h0l.91-.42h0l.11.22.05,0a5.65,5.65,0,0,0,1.94,1.39c-.1-.12-.19-.26-.28-.4a2.92,2.92,0,0,0-.3-.41,6.13,6.13,0,0,1-1.81-1.82l-.63-.94,1.11.16a4.89,4.89,0,0,1,2.16,1.11c.7.52,1.33,1,2,.81A9.43,9.43,0,0,0,97,21.61a8.09,8.09,0,0,1-1.47-1.08l-.15-.15v-.21c0-.53.22-.75.74-.75a6.54,6.54,0,0,1,1.86.68c.29.14.56.28.86.39a5.05,5.05,0,0,0-1.6-1l-1-.39.58-.33-.67-.82,1.92.09a1.27,1.27,0,0,1,.17-.87.66.66,0,0,1,.53-.26c.26,0,.55.12,1,.63l0-.06c-.37-1-.79-2.17-.31-3.15a2.7,2.7,0,0,1,1.71-1.3c.49-.16,1.28-.32,2.29-.53,3.69-.76,10.29-2.13,11.23-5.2C112.31,9,108.57,9.85,103.56,10A36.46,36.46,0,0,0,89.2,17.87l1.78.3-2.86.51a7.47,7.47,0,0,0-1.91.78l-.32.17a12.52,12.52,0,0,1-10.56-.5l-.8,1.38-.56-1-.56,1-.56-1-.56,1-.55-1-.36.62-.56-.28-.2-.34-.56,1-.56-1-.56,1-.56-1-.59,1-.54-1-.56,1-.56-1-.56,1-.56-1-.56,1-.7-1.2a12.72,12.72,0,0,1-10.13.34l-.38-.19a7.45,7.45,0,0,0-1.91-.78l-2.87-.51,1.79-.3A36.38,36.38,0,0,0,35.89,10c-5-.12-8.75-1-11.13-2.68.95,3.07,7.54,4.43,11.23,5.2,1,.21,1.8.37,2.29.53A2.69,2.69,0,0,1,40,14.32c.48,1,.06,2.14-.31,3.15l0,.06c.47-.5.76-.63,1-.63a.66.66,0,0,1,.53.26,1.26,1.26,0,0,1,.17.87l1.93-.09-.68.82.58.33-1,.39a5.08,5.08,0,0,0-1.6,1c.29-.11.57-.25.86-.39a6.67,6.67,0,0,1,1.75-.67c.6,0,.84.21.84.74v.21l-.15.15a8.12,8.12,0,0,1-1.47,1.07,9.52,9.52,0,0,0-1.09.75c.62.18,1.26-.29,2-.81a4.88,4.88,0,0,1,2.16-1.11l1.11-.16-.62.93a6.33,6.33,0,0,1-1.88,1.88l-.23.35c-.09.14-.18.28-.29.41h0a5.91,5.91,0,0,0,1.95-1.41l.06,0,.09-.18h0l.93.38h0a3.08,3.08,0,0,1-.28.51l-.14.22-.25.36a4.67,4.67,0,0,0-.76,1.4c.21-.12.47-.31.64-.42.57-.4.91-.62,1.24-.62a.61.61,0,0,1,.51.25c.28.38,0,.85-.48,1.69-.12.2-.27.47-.3.55a1.76,1.76,0,0,0,0,.27,2,2,0,0,0,.42-.34,4.84,4.84,0,0,0,.37-.49c.61-.86,1.09-1.47,1.68-1.47a.76.76,0,0,1,.39.11l.38.22-.27.63a10.2,10.2,0,0,0-.59,1.61,6.51,6.51,0,0,0,.68-1c.11-.2.23-.38.33-.55A1,1,0,0,1,51,25.1a1.43,1.43,0,0,1,.34,0l1.32-2-.62,2.17.15,0L52,26a1.86,1.86,0,0,1-.4.61,4.26,4.26,0,0,0-.94,2.28A5.07,5.07,0,0,0,52,27l.25-.44.41-.4v0a.62.62,0,0,1,.86-.41l.47.17-.07.2.19.08-.34.31-.11.27A32.71,32.71,0,0,0,52.41,30l.33-.64c.09-.18.16-.31.2-.38l.15-.28c.87-1.68,1.43-2.53,2.07-2.53h.13l.58.31-.16.4a29.65,29.65,0,0,0-1.31,4l0,.16c-.09.31-.14.54-.18.72a29.11,29.11,0,0,0,2.57-4.37l.38-.71.92.29-.15.52a19.72,19.72,0,0,0-1.09,3.17l-.07.24a11.45,11.45,0,0,0-.32,1.41c.08-.14.19-.32.32-.57l.05-.1.11-.23C58,29.09,58.35,28.72,58.81,28.72Z"/><path class="cls-3" d="M77.75,38.22c.47.63.69.31.69.31v-4c-.41-.81-3.34-1.63-5.25-.63s-1.13,4-1.13,4l.63.28C74,36.56,77.28,37.59,77.75,38.22Z"/><path class="cls-3" d="M78.27,39.11a1.2,1.2,0,0,1-.92-.59,4.21,4.21,0,0,0-2.43-.7,2.33,2.33,0,0,0-1.84.71l-.24.3-1.2-.54-.06-.23c0-.14-.86-3.44,1.38-4.61a5,5,0,0,1,2.33-.52c1.43,0,3.18.51,3.61,1.37l.05.11v4.28l-.09.13A.71.71,0,0,1,78.27,39.11Zm-3.35-2.29a5.43,5.43,0,0,1,3,.88v-3a4.44,4.44,0,0,0-2.66-.74,4,4,0,0,0-1.86.4c-1.27.66-1,2.58-.92,3.24l.07,0A3.4,3.4,0,0,1,74.92,36.82Z"/><path class="cls-3" d="M76.81,38.94c.22,1.38,1.82,2.52,1.72.89C78.53,39.82,76.6,37.57,76.81,38.94Z"/><path class="cls-3" d="M78.14,41.13h0c-.77,0-1.65-1-1.83-2.12a1,1,0,0,1,.15-.8A.64.64,0,0,1,77,38c.44,0,1.1.51,2,1.5l.11.13v.17a1.39,1.39,0,0,1-.28,1.08A.82.82,0,0,1,78.14,41.13Zm-.61-1.64a1.75,1.75,0,0,0,.5.58V40C77.87,39.83,77.7,39.65,77.53,39.49Z"/><path class="cls-3" d="M76.66,40.44c1.06-.07-1.49-2.63-1.49-2.63C73.71,37.43,75.6,40.51,76.66,40.44Z"/><path class="cls-3" d="M76.63,40.95c-1.12,0-2.49-1.91-2.49-2.85a.78.78,0,0,1,.81-.82v.82h0v.18a.25.25,0,0,0,.19-.18h0c0,.52,1.07,1.84,1.49,1.84Z"/><path class="cls-3" d="M74,38.91c.56.16,0-1.13,0-1.13C73.06,38.24,73.46,38.75,74,38.91Z"/><path class="cls-3" d="M74.12,39.43h0l-.22,0a1.17,1.17,0,0,1-1-.94c0-.31.1-.76.87-1.12l.47-.22.21.47c.32.72.37,1.25.17,1.56A.64.64,0,0,1,74.12,39.43Z"/><path class="cls-3" d="M66.38,33.9c-1.91-1-4.85-.18-5.26.63v4s.22.32.69-.31,3.72-1.66,5.06,0l.63-.28S68.29,34.9,66.38,33.9Z"/><path class="cls-3" d="M61.29,39.11a.71.71,0,0,1-.58-.3l-.09-.13V34.5l.05-.2c.43-.86,2.17-1.37,3.61-1.37a5,5,0,0,1,2.33.52C68.85,34.63,68,37.92,68,38.07l-.06.23-1.2.54-.24-.3a2.33,2.33,0,0,0-1.84-.71,4.21,4.21,0,0,0-2.43.7A1.2,1.2,0,0,1,61.29,39.11Zm.33-4.43v3a5.43,5.43,0,0,1,3-.88,3.4,3.4,0,0,1,2.35.8l.07,0c.12-.66.35-2.58-.92-3.24a4,4,0,0,0-1.87-.41A4.44,4.44,0,0,0,61.62,34.68Z"/><path class="cls-3" d="M61,39.82c-.1,1.64,1.5.49,1.72-.89S61,39.82,61,39.82Z"/><path class="cls-3" d="M61.42,41.13h0a.82.82,0,0,1-.6-.26,1.38,1.38,0,0,1-.29-1.08v-.17l.11-.13c.86-1,1.51-1.5,2-1.5a.64.64,0,0,1,.49.22,1,1,0,0,1,.15.8C63.07,40.1,62.18,41.13,61.42,41.13ZM61.53,40s0,0,0,.06a1.76,1.76,0,0,0,.5-.59C61.87,39.64,61.7,39.83,61.53,40Z"/><path class="cls-3" d="M64.39,37.82s-2.55,2.56-1.49,2.63S65.85,37.43,64.39,37.82Z"/><path class="cls-3" d="M62.93,40.95v-1c.12,0,.48-.2.9-.72a2.54,2.54,0,0,0,.59-1.12h.2v-.82a.78.78,0,0,1,.81.82,3.34,3.34,0,0,1-.81,1.75A2.56,2.56,0,0,1,62.93,40.95Z"/><path class="cls-3" d="M65.53,37.78s-.56,1.29,0,1.13S66.5,38.24,65.53,37.78Z"/><path class="cls-3" d="M65.44,39.43a.64.64,0,0,1-.54-.29c-.2-.31-.15-.83.17-1.56l.21-.47.47.22c.77.36.9.81.87,1.12a1.17,1.17,0,0,1-1,.94Z"/><path class="cls-3" d="M76.74,27.77v0h-.3l.37,1-1.21-.12.22,1.19-1.18-.32,0,1.21-1.11-.5-.18,1.2-1-.68L72,31.91l-.88-.84-.57,1.08-.73-1-.73,1-.56-1.08-.88.84-.37-1.16-1,.68-.18-1.2-1.1.5,0-1.21-1.17.32.22-1.19-1.21.12.37-1h-.4l-2,3.4v2.67s7.84-3.25,7.15,3.67c0,.06,0,.11,0,.17l1.84-1.31,1.84,1.31c0-.05,0-.11,0-.17-.69-6.92,7.15-3.67,7.15-3.67V31.15Z"/><path class="cls-3" d="M72.2,38.68,69.78,37l-2.37,1.69,0-1.13a4,4,0,0,0-.64-3.14,3,3,0,0,0-2.34-.83,10.62,10.62,0,0,0-3.47.72l-.69.29V31l2.25-3.76H64l-.34.94,1.08-.11-.2,1.07,1-.28,0,1.08,1-.45.16,1.07.9-.61.33,1,.78-.75.5,1,.65-.87.65.87.51-1,.78.75.34-1,.89.61.16-1.07,1,.45,0-1.08,1.05.28L75,28.09l1.08.11-.34-.95H77.2l0,.37,2,3.39v3.56l-.69-.29a10.62,10.62,0,0,0-3.47-.72,3,3,0,0,0-2.34.83,3.89,3.89,0,0,0-.65,3.05l0,.18Zm-7.74-6.12a4,4,0,0,1,3.09,1.16,4.25,4.25,0,0,1,1,2.93l1.28-.91,1.28.91a4.26,4.26,0,0,1,1-2.93,4,4,0,0,1,3.09-1.16,10.79,10.79,0,0,1,3.16.55V31.29l-1.18-2-.85-.08.24,1.32-1.3-.35,0,1.34L74,31l-.2,1.33-1.11-.75-.42,1.28-1-.93-.63,1.19L69.84,32,69,33.09l-.62-1.19-1,.93L67,31.55l-1.11.75L65.71,31l-1.22.56,0-1.34-1.3.35.24-1.32-1,.1-1.18,2v1.82A10.79,10.79,0,0,1,64.46,32.56Z"/><path class="cls-3" d="M73.15,10.9c.19-2.16-1.21-10.52-9.32-6.74,0,0-5.44-1.63-5.93,1.21a2.22,2.22,0,0,0,.23,1.25,1.37,1.37,0,0,0,.19,1s5.22-1.93,6.13,3c.82,4.42-.7,5.94-1,6.2h0l.62,1.07.5.87.56-1,.55,1,.56-1,.56,1,.55-1,.56,1v0l.56-1,.55,1,.56-1,.27.46.29.5.56-1,.56,1h0l.55-1,.56,1,.56-1,.56,1,.55-1,.56,1,.6-1,.53-.91h0C75.42,16.33,73,12.92,73.15,10.9ZM65.7,4.66h2.52a.25.25,0,1,1,0,.5H65.7a.25.25,0,1,1,0-.5Zm-6.89.61a4.85,4.85,0,0,1,1.49-.35,4.92,4.92,0,0,0-1.49,1Zm11,11.49c.6-3.84,0-6.62-1.8-8.28-3.29-3-9.57-1.22-9.63-1.2L58.28,7c.26-.08,6.53-1.89,10,1.27,1.87,1.72,2.5,4.59,1.9,8.51Z"/><path class="cls-3" d="M70.76,20.57V18.84l-.06-.1-.55,1-.56-1-.56,1-.55-1-.53,1-.6-1-.56,1-.56-1-.56,1-.55-1-.56,1-2-3.45h.67c.38-.42,1.4-1.94.72-5.6a3.18,3.18,0,0,0-3.41-2.92,6.76,6.76,0,0,0-2.06.34l-.34.12-.23-.28a1.72,1.72,0,0,1-.32-1.18,2.92,2.92,0,0,1-.21-1.41c.17-1,.89-2.13,3.36-2.13a12.65,12.65,0,0,1,3,.43c3.26-1.47,5.92-1.19,7.72.77a9.77,9.77,0,0,1,2.14,6.55c-.12,1.38,1.26,3.84,2.48,5.52l.19.27-1.73,3-.55-1-.56,1-.56-1-.55,1-.56-1-.13.22-.39.79,0-.05Zm-3.42-3.84.57,1,.57-1,.55,1,.25-.44h-.06l.09-.58c.57-3.67,0-6.3-1.64-7.83a7.2,7.2,0,0,0-4.89-1.62,4.32,4.32,0,0,1,2.16,3.24c.71,3.82-.26,5.64-.87,6.37l.5.86.56-1,.55,1,.55-1,.56,1Zm4.47,0,.56,1,.56-1,.56,1,.55-1,.56,1,.53-.91c-.82-1.17-2.65-4-2.48-5.93a8.78,8.78,0,0,0-1.88-5.78C69.24,3.41,67,3.26,64,4.62l-.17.08-.18-.05a12,12,0,0,0-2.93-.44,2.82,2.82,0,0,0-2,.55,5.25,5.25,0,0,1,1.47-.35h.15l1.8.21-1.66.74a4.52,4.52,0,0,0-1.27.85,17,17,0,0,1,3.31-.34,8.65,8.65,0,0,1,6,2c2,1.83,2.68,4.84,2.05,9l.05-.09.52.91.53-1.07v.25Zm-1.92.52.25.44.25-.44ZM68.22,5.67H65.7a.75.75,0,1,1,0-1.51h2.52a.75.75,0,1,1,0,1.51Z"/><path class="cls-5" d="M53.16,26.19l.15-.14C53.07,26,53.08,26.15,53.16,26.19Z"/><path class="cls-6" d="M51.58,25.6l-.26.39C51.29,26.09,51.34,26.06,51.58,25.6Z"/><path class="cls-7" d="M45.94,22.79a2.34,2.34,0,0,0,.25-.44A4.18,4.18,0,0,1,45.94,22.79Z"/><path class="cls-8" d="M86.14,26l.15.14C86.37,26.15,86.38,26,86.14,26Z"/><path class="cls-9" d="M88.13,26l-.26-.39C88.11,26.06,88.16,26.09,88.13,26Z"/><path class="cls-10" d="M93.51,22.79a4.14,4.14,0,0,1-.24-.44A2.27,2.27,0,0,0,93.51,22.79Z"/><path class="cls-11" d="M129.9,8.86a2.91,2.91,0,0,0-2.49,1.7c-.71,1.66-2.65,1.33-3,1.33l-14.18-.29-1.32,1.82,18.53.62s.34-3.61,8.5-4.35a11.06,11.06,0,0,1,2.69-1.33c1.08-.25-2.9.5-2.9.5Z"/><path class="cls-12" d="M130.31,14s-2.28-.21-3.07.49L108.63,14h-.16s-1.16.24-.42.62l20.48,2.15s1-1.82,6.1-1.91c0,0,2.15-.54,2.44-2.07C137.07,12.84,133.3,14.66,130.31,14Z"/><path class="cls-13" d="M133,17.77c-1.38-1-3.49-.91-4-.41a3.21,3.21,0,0,1-2.94.12s-16.62-2.12-16.62-1.78c0,0,1.95,1.43,9.08,2.86s9.7,1.29,9.7,1.29a1.94,1.94,0,0,1,1.66,0C130.77,20.26,134.34,18.81,133,17.77Z"/><path class="cls-14" d="M126.46,20.22s-15.46-2-18.12-4.31a5.15,5.15,0,0,1-1.7.41s14.13,7.26,20.06,5.85C126.71,22.16,131.19,21,126.46,20.22Z"/><path class="cls-15" d="M121.89,22.78c-.91-.33-13.93-4.18-15.46-6l-1.57.62s6.76,4.65,8.38,5.1c0,0,2.49.25,3,.87a14.22,14.22,0,0,1,4.89.16C123.15,24.15,122.81,23.12,121.89,22.78Z"/><path class="cls-16" d="M110.29,21.88a36.24,36.24,0,0,0-9-4.73,2.9,2.9,0,0,1,0,2.32L107.8,24a8.87,8.87,0,0,0,3.19.46,12.14,12.14,0,0,1,2.45-.41C114.72,23.45,110.29,21.88,110.29,21.88Z"/><path class="cls-17" d="M110.41,25c-3.24.16-10.53-5.86-10.53-5.86v-.19c.09,0-.62.66-.62.66l1.16.69c1.5,1.18-1.16,1.51-1.16,1.51l7.62,3.94a6.18,6.18,0,0,0,3.94.33C112.86,25.61,110.41,25,110.41,25Z"/><path class="cls-18" d="M107.28,26.82c-.59-.27-7.67-4.25-7.67-4.25s-.58-.11-.15.61,5.37,4.27,6.93,4.43S107.86,27.09,107.28,26.82Z"/><path class="cls-19" d="M97.29,23.75s2.8,2.72,3.69,3,.46-.12.89,0,.65-.37,0-.68S96,21.58,97.29,23.75Z"/><path class="cls-20" d="M102.28,27.12c-1.19,1.43-4.92-2.45-4.92-2.45-.23.48-2,.28-2,.28s2.42,3.08,4.37,4,3.65,1,4.19-.52S102.28,27.12,102.28,27.12Z"/><path class="cls-21" d="M98,28.65c-.68-1-3.53-2.88-3.83-2.32a3,3,0,0,0,0,1.72c0,.08,3.88,4.19,7.31,3,0,0,.87-.21.39-.64S98.66,29.69,98,28.65Z"/><path class="cls-22" d="M93.87,28.43l0,0a2.7,2.7,0,0,1-1.74-.52c-.13-.15.09,4.12,5,5.92a1.57,1.57,0,0,1,1.58,0s1.2.25,1.37-.47A10.65,10.65,0,0,1,93.87,28.43Z"/><path class="cls-23" d="M97.1,34.4c-2.89-.85-6.82-5.63-6.82-5.63-.72-.29-.52.51-.52.51.08,1.07,3.5,4.23,4.24,5.24s3.2,1.66,3.91,1.16S97.1,34.4,97.1,34.4Z"/><path class="cls-24" d="M121.61,10.52a23,23,0,0,0-2.86.83l6.46.29c1.62-2.8,7-4.42,7-4.42,5.81-.4,6.61-4.13,6.61-4.13C123.55,6.86,121.61,10.52,121.61,10.52Z"/><path class="cls-25" d="M112.15,11.17c2.65.41,8.71-.91,9.17-1.37s4.18-3.68,7.44-4.64a5.05,5.05,0,0,0,3.7-3.81c-2.16,2.24-16.62,5.84-16.62,5.84C115.14,9.89,112.15,11.17,112.15,11.17Z"/><path class="cls-26" d="M102,13.63c-3.61.91-.75,3.19-.75,3.19,3.53,1.41,7.26-4,7.26-4C109.16,11.37,105.61,12.71,102,13.63Z"/><path class="cls-27" d="M87.87,25.6l.26.39C88.1,25.87,88,25.58,87.87,25.6Z"/><path class="cls-28" d="M86.29,26.19,86.14,26C86.19,26.18,86.25,26.21,86.29,26.19Z"/><path class="cls-29" d="M12,14l18.52-.62-1.32-1.82-14.18.29c-.37,0-2.32.33-3-1.33a2.91,2.91,0,0,0-2.49-1.7H3.75s-4-.75-2.9-.5A11.1,11.1,0,0,1,3.54,9.69C11.7,10.43,12,14,12,14Z"/><path class="cls-30" d="M10.92,16.81,31.4,14.66C32.15,14.29,31,14,31,14h-.16l-18.61.49c-.79-.7-3.07-.49-3.07-.49-3,.62-6.76-1.2-6.76-1.2.29,1.54,2.45,2.07,2.45,2.07C9.92,15,10.92,16.81,10.92,16.81Z"/><path class="cls-31" d="M21,18.55c7.13-1.42,9.08-2.86,9.08-2.86,0-.33-16.62,1.78-16.62,1.78a3.21,3.21,0,0,1-2.94-.12c-.54-.5-2.65-.62-4,.41s2.2,2.48,3.15,2.07a1.94,1.94,0,0,1,1.66,0S13.87,20,21,18.55Z"/><path class="cls-32" d="M31.11,15.91C28.46,18.19,13,20.22,13,20.22c-4.73.79-.25,1.95-.25,1.95,5.93,1.41,20.06-5.85,20.06-5.85A5.16,5.16,0,0,1,31.11,15.91Z"/><path class="cls-33" d="M34.6,17.44,33,16.81c-1.54,1.79-14.56,5.64-15.46,6s-1.25,1.37.79.79a14.21,14.21,0,0,1,4.89-.16c.49-.62,3-.87,3-.87C27.83,22.08,34.6,17.44,34.6,17.44Z"/><path class="cls-34" d="M31.65,24l6.55-4.52a2.91,2.91,0,0,1,0-2.32,36.19,36.19,0,0,0-9,4.73S24.73,23.45,26,24a12.14,12.14,0,0,1,2.45.41A8.87,8.87,0,0,0,31.65,24Z"/><path class="cls-35" d="M40.19,21.79s-2.65-.33-1.16-1.51l1.16-.69s-.71-.66-.62-.66v.19S32.27,25.15,29,25c0,0-2.45.62-.42,1.08a6.18,6.18,0,0,0,3.94-.33Z"/><path class="cls-36" d="M40,23.19c.44-.71-.15-.61-.15-.61s-7.08,4-7.67,4.25-.78,1,.88.79S39.55,23.89,40,23.19Z"/><path class="cls-37" d="M37.58,26.7c.43-.12,0,.23.89,0s3.69-3,3.69-3c1.25-2.17-3.94,2-4.58,2.27S37.15,26.82,37.58,26.7Z"/><path class="cls-38" d="M44.13,25s-1.8.2-2-.28c0,0-3.74,3.88-4.93,2.45,0,0-2.15-.21-1.61,1.32s2.25,1.46,4.19.52S44.13,25,44.13,25Z"/><path class="cls-39" d="M45.31,28.05a3,3,0,0,0,0-1.72c-.31-.56-3.15,1.29-3.83,2.32S38.08,30,37.6,30.46s.39.64.39.64C41.43,32.24,45.27,28.13,45.31,28.05Z"/><path class="cls-40" d="M42.35,33.79c4.9-1.8,5.12-6.07,5-5.92a2.71,2.71,0,0,1-1.74.52l0,0a10.65,10.65,0,0,1-6.17,4.89c.16.72,1.37.47,1.37.47A1.57,1.57,0,0,1,42.35,33.79Z"/><path class="cls-41" d="M45.45,34.52c.73-1,4.15-4.17,4.23-5.24,0,0,.2-.8-.52-.51,0,0-3.93,4.78-6.82,5.63,0,0-1.51.78-.82,1.28S44.72,35.54,45.45,34.52Z"/><path class="cls-42" d="M7.27,7.22s5.34,1.61,7,4.42l6.46-.29a23.13,23.13,0,0,0-2.86-.83S15.9,6.86.66,3.09C.66,3.09,1.47,6.82,7.27,7.22Z"/><path class="cls-43" d="M10.68,5.16c3.26,1,7,4.19,7.44,4.64s6.52,1.77,9.17,1.37c0,0-3-1.28-3.69-4,0,0-14.47-3.6-16.63-5.84A5.05,5.05,0,0,0,10.68,5.16Z"/><path class="cls-44" d="M38.2,16.81s2.87-2.28-.75-3.19-7.16-2.26-6.51-.79C30.94,12.84,34.68,18.22,38.2,16.81Z"/><path class="cls-45" d="M51.32,26l.26-.39C51.5,25.58,51.36,25.87,51.32,26Z"/><path class="cls-46" d="M53.31,26l-.15.14S53.26,26.18,53.31,26Z"/><path class="cls-47" d="M103.49,9.35a36.57,36.57,0,0,0-14.84,8.22h0l-.61.48h0a9.4,9.4,0,0,0-2.37,1,12,12,0,0,1-10.45-.69h-.09l-.6,1-.56-1-.56,1-.56-1-.56,1-.56-1-.56,1h0l-.56-1-.56,1-.29-.5-.27-.46-.56,1-.56-1-.56,1v0l-.56-1-.56,1-.56-1-.56,1-.56-1-.56,1-.51-.87A12.1,12.1,0,0,1,53.79,19a9.45,9.45,0,0,0-2.37-1h0l-.61-.48h0A36.53,36.53,0,0,0,36,9.35C25.56,9.1,24.19,5.56,24.15,6.2c-.33,5.14,11.52,6.39,14,7.17s1.45,2.7.91,4.27.54.62.54.62c1.86-2.32,1.2.17,1.2.17l1.43-.07c-.16.2-.3.43-.14.52a5.42,5.42,0,0,0-2.44,1.91.88.88,0,0,1,.5.25c1.24-.25,2-1,3.24-1.24.24,0,.24,0,.24.25-.74.75-2,1.24-2.73,2v.5c1.74,1,3-1.49,4.73-1.74a5.82,5.82,0,0,1-1.74,1.74c-.25.25-.49.75-.74,1,0,.25,0,1,.49.75A6.73,6.73,0,0,0,46,22.63c-.09.15-.09.26,0,.16a4.18,4.18,0,0,0,.25-.44,2.34,2.34,0,0,1-.25.44,6.77,6.77,0,0,0-1.27,2.38c-.21,1.62,2.21-1,2.51-.61.14.19-.78,1.52-.86,1.81-.29,1.25.45,1.18,1.21.42.39-.39,1.31-2.08,1.83-1.78a8.16,8.16,0,0,0-.82,2.57,1.57,1.57,0,0,1,0,.41c1-.25,1.49-1.49,2-2.24.25-.5.75-.25,1-.17-.24.47-.29.49-.26.39-.71,1.06-1.45,2.19-1,3.52,1.25-.5,1.75-1.75,2.24-2.74l.6-.58c-.08,0-.09-.23.15-.14-.14.4-2.26,5.12-1.37,5.18.43,0,1.25-1.84,1.43-2.13s1.38-2.84,1.88-2.55a30.34,30.34,0,0,0-1.33,4c-.06.25-.51,1.61-.14,1.8.77.39,3.33-4.78,3.6-5.27l.07,0a20.34,20.34,0,0,0-1.12,3.25c-.1.4-.69,2.22-.29,2.59s1-1,1.2-1.25,1.26-2.84,1.62-2.61-.3,1.9-.37,2.17c-.12.45-1,2.95,0,2.47.7-.35,1.28-1.75,1.65-2.39.59-1,1.14-2.05,1.68-3.09l.85-1.44h.19l.84.05-.38,1.06,1.12-.11-.21,1.11,1.09-.29,0,1.12,1-.47.17,1.11.93-.63.35,1.07.82-.78.52,1,.63-.84v0l0,0,.68.9.52-1,.81.78.35-1.07.93.63.16-1.11,1,.46,0-1.12,1.09.29-.21-1.11,1.12.11-.38-1.06.84-.05h.07l.85,1.43c.54,1,1.09,2.08,1.68,3.09.37.64.95,2,1.65,2.39,1,.48.13-2,0-2.47-.07-.26-.66-2-.37-2.17s1.5,2.41,1.61,2.61S83,33.33,83.41,33s-.19-2.2-.29-2.59A20.35,20.35,0,0,0,82,27.12l.07,0c.27.49,2.83,5.66,3.6,5.27.36-.19-.08-1.56-.14-1.8a30.22,30.22,0,0,0-1.33-4c.51-.29,1.64,2.12,1.88,2.55s1,2.15,1.43,2.13c.89-.06-1.22-4.78-1.37-5.18.24-.09.23.11.15.14l.6.58c.49,1,1,2.24,2.24,2.74.44-1.33-.29-2.46-1-3.52,0,.1,0,.08-.26-.39.26-.07.77-.33,1,.17.5.75,1,2,2,2.24a1.52,1.52,0,0,1,0-.41A8.12,8.12,0,0,0,90.09,25c.52-.31,1.45,1.39,1.83,1.78.76.76,1.5.83,1.21-.42-.07-.29-1-1.62-.86-1.81.3-.41,2.72,2.22,2.51.61a6.76,6.76,0,0,0-1.27-2.38,2.27,2.27,0,0,1-.24-.44,4.14,4.14,0,0,0,.24.44c.08.1.08,0,0-.16a6.78,6.78,0,0,0,2.35,1.65c.49.25.49-.5.49-.75-.25-.25-.49-.75-.74-1a5.89,5.89,0,0,1-1.74-1.74c1.74.25,3,2.73,4.73,1.74V22c-.75-.74-2-1.24-2.73-2,0-.25,0-.25.24-.25,1.25.25,2,1,3.24,1.24a.89.89,0,0,1,.5-.25,5.42,5.42,0,0,0-2.44-1.91c.16-.09,0-.32-.14-.52l1.42.07s-.66-2.49,1.2-.17c0,0,1.08,1,.54-.62s-1.53-3.48.92-4.27,14.31-2,14-7.17C115.26,5.56,113.89,9.1,103.49,9.35Z"/><path class="cls-48" d="M77.75,38.09c.47.63.69.31.69.31v-4c-.41-.81-3.34-1.63-5.25-.63s-1.13,4-1.13,4l.63.28C74,36.43,77.28,37.46,77.75,38.09Z"/><path class="cls-49" d="M76.81,38.81c.22,1.38,1.82,2.52,1.72.88C78.53,39.69,76.6,37.44,76.81,38.81Z"/><path class="cls-50" d="M76.66,40.32c1.06-.07-1.49-2.63-1.49-2.63C73.71,37.3,75.6,40.38,76.66,40.32Z"/><path class="cls-51" d="M74,38.78c.56.16,0-1.13,0-1.13C73.06,38.11,73.46,38.63,74,38.78Z"/><path class="cls-52" d="M66.38,33.77c-1.91-1-4.85-.18-5.26.63v4s.22.32.69-.31,3.72-1.66,5.06,0l.63-.28S68.29,34.77,66.38,33.77Z"/><path class="cls-53" d="M61,39.69c-.1,1.64,1.5.49,1.72-.88S61,39.69,61,39.69Z"/><path class="cls-54" d="M64.39,37.69s-2.55,2.56-1.49,2.63S65.85,37.3,64.39,37.69Z"/><path class="cls-55" d="M65.53,37.65s-.56,1.29,0,1.13S66.5,38.11,65.53,37.65Z"/><path class="cls-56" d="M76.74,27.65v0h-.3l.37,1-1.21-.12.22,1.19-1.18-.32,0,1.21-1.11-.5-.18,1.2-1-.68L72,31.78l-.88-.84L70.57,32l-.73-1-.73,1-.56-1.08-.88.84-.37-1.16-1,.68-.18-1.2-1.1.5,0-1.21-1.17.32.22-1.19-1.21.12.37-1h-.4l-2,3.4v2.67s7.84-3.25,7.15,3.67c0,.06,0,.11,0,.16l1.84-1.31,1.84,1.31c0-.05,0-.11,0-.16-.69-6.92,7.15-3.67,7.15-3.67V31Z"/><path class="cls-57" d="M73.15,10.77C73.33,8.61,71.94.25,63.83,4c0,0-5.44-1.62-5.93,1.21a2.22,2.22,0,0,0,.23,1.25,1.37,1.37,0,0,0,.19,1s5.22-1.93,6.13,3c.82,4.42-.7,5.94-1,6.2h0l.62,1.07.5.87.56-1,.55,1,.56-1,.56,1,.55-1,.56,1v0l.56-1,.55,1,.56-1,.27.46.29.5.56-1,.56,1h0l.55-1,.56,1,.56-1,.56,1,.55-1,.56,1,.6-1,.53-.91h0C75.42,16.2,73,12.79,73.15,10.77ZM65.7,4.53h2.52a.25.25,0,1,1,0,.5H65.7a.25.25,0,1,1,0-.5Zm-6.89.61a4.83,4.83,0,0,1,1.49-.35,4.92,4.92,0,0,0-1.49,1Zm11,11.49c.6-3.84,0-6.62-1.8-8.28-3.29-3-9.57-1.22-9.63-1.2l-.1-.31c.26-.08,6.53-1.89,10,1.27,1.87,1.72,2.5,4.58,1.9,8.51Z"/></g></g></svg>