<?xml version="1.0" encoding="iso-8859-1"?>
<!-- Generator: Adobe Illustrator 19.1.0, SVG Export Plug-In . SVG Version: 6.00 Build 0)  -->
<svg version="1.1" id="Capa_1" xmlns="http://www.w3.org/2000/svg" xmlns:xlink="http://www.w3.org/1999/xlink" x="0px" y="0px"
	 viewBox="0 0 48 48" style="enable-background:new 0 0 48 48;" xml:space="preserve">
<g id="edit">
	<g>
		<path d="M14,34l9.948-0.004l22.073-22.096l-1.161-1.151l-1.065-1.061l-0.357-0.354l-4.243-4.242l-0.001,0L36.101,2l-2.646,2.646
			l-4.7,4.701l-0.913,0.956L14,24V34z M36.101,4.829l7.071,7.071l-2.828,2.829l-7.071-7.071L36.101,4.829z M16,25.053L31.92,9.071
			l7.041,7.008L22.947,32H16V25.053z M46,23v23H2V2h23V0H0v48h48V23H46z"/>
	</g>
</g>
<g>
</g>
<g>
</g>
<g>
</g>
<g>
</g>
<g>
</g>
<g>
</g>
<g>
</g>
<g>
</g>
<g>
</g>
<g>
</g>
<g>
</g>
<g>
</g>
<g>
</g>
<g>
</g>
<g>
</g>
</svg>
