<?xml version="1.0" encoding="utf-8"?>
<!-- Generator: Adobe Illustrator 20.0.0, SVG Export Plug-In . SVG Version: 6.00 Build 0)  -->
<svg version="1.1" id="Capa_1" xmlns="http://www.w3.org/2000/svg" xmlns:xlink="http://www.w3.org/1999/xlink" x="0px" y="0px"
	 viewBox="0 0 48 48" style="enable-background:new 0 0 48 48;" xml:space="preserve">
<style type="text/css">
	.st0{fill:#FFFFFF;}
	.st1{fill:none;}
</style>
<rect y="0" class="st0" width="48" height="48"/>
<path class="st1" d="z"/>
<g id="edit">
	<g>
		<path d="M14,34l9.9,0L46,11.9l-1.2-1.2l-1.1-1.1l-0.4-0.4l-4.2-4.2h0L36.1,2l-2.6,2.6l-4.7,4.7l-0.9,1L14,24V34z M36.1,4.8
			l7.1,7.1l-2.8,2.8l-7.1-7.1L36.1,4.8z M16,25.1l15.9-16l7,7L22.9,32H16V25.1z M46,23v23H2V2h23V0H0v48h48V23H46z"/>
	</g>
</g>
<path class="st1" d="z"/>
</svg>
